<svg width="378" height="19" viewBox="0 0 378 19" fill="none" xmlns="http://www.w3.org/2000/svg">
<path d="M274.872 3.67676H274.102C274.07 3.46514 273.985 3.30306 273.845 3.1905C273.706 3.07794 273.526 3.02166 273.305 3.02166C273.192 3.02166 273.084 3.03966 272.981 3.07568C272.882 3.1117 272.78 3.17249 272.677 3.25803C272.578 3.34358 272.497 3.4764 272.434 3.6565C272.375 3.83209 272.346 4.0437 272.346 4.29133C272.346 4.62001 272.422 4.90141 272.576 5.13554C272.729 5.36966 272.96 5.48673 273.271 5.48673C273.496 5.48673 273.681 5.41694 273.825 5.27736C273.974 5.13779 274.066 4.94193 274.102 4.6898H274.872C274.8 5.14454 274.626 5.49348 274.352 5.73661C274.082 5.97524 273.721 6.09455 273.271 6.09455C272.74 6.09455 272.323 5.92796 272.022 5.59478C271.725 5.2571 271.576 4.82262 271.576 4.29133C271.576 3.73754 271.725 3.2873 272.022 2.94061C272.319 2.58942 272.744 2.41383 273.298 2.41383C273.726 2.41383 274.086 2.52189 274.379 2.738C274.671 2.95412 274.836 3.26704 274.872 3.67676ZM275.498 6V2.50838H276.22V3.18374H276.234C276.279 2.99014 276.403 2.81454 276.605 2.65696C276.812 2.49487 277.028 2.41383 277.254 2.41383C277.299 2.41383 277.395 2.42058 277.544 2.43409V3.17699C277.422 3.15448 277.312 3.14322 277.213 3.14322C276.943 3.14322 276.718 3.24903 276.538 3.46064C276.358 3.67225 276.268 3.96491 276.268 4.33861V6H275.498ZM280.921 4.45342H278.354C278.354 4.74608 278.433 4.99146 278.591 5.18957C278.753 5.38767 278.987 5.48673 279.293 5.48673C279.725 5.48673 280.009 5.29312 280.144 4.90591H280.873C280.792 5.27961 280.605 5.57227 280.313 5.78388C280.025 5.991 279.685 6.09455 279.293 6.09455C278.753 6.09455 278.332 5.92796 278.03 5.59478C277.733 5.2571 277.584 4.81136 277.584 4.25757C277.584 3.74429 277.74 3.30981 278.05 2.95412C278.361 2.59393 278.768 2.41383 279.273 2.41383C279.809 2.41383 280.234 2.61869 280.549 3.02841C280.864 3.43813 280.988 3.91313 280.921 4.45342ZM278.354 3.9469H280.151C280.133 3.69026 280.045 3.4719 279.887 3.2918C279.73 3.1117 279.525 3.02166 279.273 3.02166C279.012 3.02166 278.795 3.10945 278.624 3.28505C278.453 3.46064 278.363 3.68126 278.354 3.9469ZM284.43 3.42687V5.22333C284.43 5.31788 284.444 5.38542 284.471 5.42594C284.498 5.46646 284.545 5.48673 284.613 5.48673C284.689 5.48673 284.752 5.48222 284.802 5.47322V6.00675C284.635 6.06528 284.473 6.09455 284.315 6.09455C283.973 6.09455 283.775 5.95272 283.721 5.66907C283.577 5.80865 283.395 5.91445 283.174 5.98649C282.953 6.05853 282.733 6.09455 282.512 6.09455C282.17 6.09455 281.884 6.00675 281.655 5.83116C281.429 5.65106 281.317 5.39893 281.317 5.07475C281.317 4.90817 281.342 4.76409 281.391 4.64252C281.445 4.51646 281.51 4.4174 281.587 4.34536C281.664 4.27333 281.765 4.21254 281.891 4.16302C282.017 4.10899 282.132 4.07072 282.235 4.0482C282.343 4.02569 282.474 4.00543 282.627 3.98742L283.053 3.93339C283.3 3.90188 283.471 3.85685 283.566 3.79832C283.66 3.73979 283.708 3.63849 283.708 3.49441C283.708 3.17924 283.467 3.02166 282.985 3.02166C282.76 3.02166 282.58 3.06893 282.445 3.16348C282.31 3.25353 282.233 3.39085 282.215 3.57545H281.445C281.472 3.16123 281.632 2.86407 281.925 2.68397C282.222 2.50388 282.591 2.41383 283.032 2.41383C283.415 2.41383 283.744 2.49712 284.018 2.66371C284.293 2.8303 284.43 3.08469 284.43 3.42687ZM283.66 4.82487V4.25081C283.539 4.32285 283.341 4.37688 283.066 4.4129L282.755 4.45342C282.31 4.51195 282.087 4.69655 282.087 5.00722C282.087 5.16931 282.15 5.29087 282.276 5.37191C282.406 5.44845 282.564 5.48673 282.749 5.48673C282.987 5.48673 283.199 5.4327 283.383 5.32464C283.568 5.21208 283.66 5.04549 283.66 4.82487ZM284.907 3.08244V2.50838H285.488V1.46157H286.258V2.50838H286.954V3.08244H286.258V4.94644C286.258 5.12653 286.278 5.2526 286.319 5.32464C286.364 5.39217 286.468 5.42594 286.63 5.42594C286.774 5.42594 286.882 5.41694 286.954 5.39893V5.99325C286.729 6.02026 286.562 6.03377 286.454 6.03377C286.076 6.03377 285.821 5.96623 285.691 5.83116C285.565 5.69158 285.497 5.46196 285.488 5.14229V3.08244H284.907ZM290.675 4.45342H288.109C288.109 4.74608 288.188 4.99146 288.345 5.18957C288.507 5.38767 288.741 5.48673 289.048 5.48673C289.48 5.48673 289.763 5.29312 289.898 4.90591H290.628C290.547 5.27961 290.36 5.57227 290.067 5.78388C289.779 5.991 289.439 6.09455 289.048 6.09455C288.507 6.09455 288.086 5.92796 287.785 5.59478C287.487 5.2571 287.339 4.81136 287.339 4.25757C287.339 3.74429 287.494 3.30981 287.805 2.95412C288.116 2.59393 288.523 2.41383 289.027 2.41383C289.563 2.41383 289.989 2.61869 290.304 3.02841C290.619 3.43813 290.743 3.91313 290.675 4.45342ZM288.109 3.9469H289.905C289.887 3.69026 289.799 3.4719 289.642 3.2918C289.484 3.1117 289.279 3.02166 289.027 3.02166C288.766 3.02166 288.55 3.10945 288.379 3.28505C288.208 3.46064 288.118 3.68126 288.109 3.9469ZM294.549 1.17792V6H293.82V5.52725H293.807C293.613 5.90545 293.253 6.09455 292.726 6.09455C292.195 6.09455 291.789 5.92121 291.51 5.57452C291.231 5.22784 291.092 4.77985 291.092 4.23055C291.092 3.63623 291.238 3.18599 291.531 2.87983C291.828 2.56916 292.186 2.41383 292.604 2.41383C292.839 2.41383 293.061 2.4611 293.273 2.55566C293.489 2.6457 293.653 2.78078 293.766 2.96087H293.78V1.17792H294.549ZM291.861 4.29133C291.861 4.62001 291.943 4.90141 292.105 5.13554C292.271 5.36966 292.512 5.48673 292.827 5.48673C293.147 5.48673 293.39 5.36516 293.557 5.12203C293.723 4.8789 293.807 4.58849 293.807 4.25081C293.807 3.86361 293.719 3.56194 293.543 3.34583C293.372 3.12971 293.138 3.02166 292.841 3.02166C292.508 3.02166 292.26 3.14547 292.098 3.3931C291.94 3.64074 291.861 3.94015 291.861 4.29133ZM296.924 3.08244V2.50838H297.498V2.21797C297.498 1.81276 297.584 1.53811 297.755 1.39403C297.931 1.24996 298.167 1.17792 298.464 1.17792C298.716 1.17792 298.896 1.19368 299.004 1.22519V1.82626C298.901 1.79925 298.782 1.78574 298.647 1.78574C298.394 1.78574 298.268 1.90731 298.268 2.15044V2.50838H298.923V3.08244H298.268V6H297.498V3.08244H296.924ZM302.29 5.58803C301.974 5.92571 301.544 6.09455 301 6.09455C300.455 6.09455 300.025 5.92571 299.71 5.58803C299.395 5.24585 299.237 4.80011 299.237 4.25081C299.237 3.71052 299.395 3.26929 299.71 2.9271C300.025 2.58492 300.455 2.41383 301 2.41383C301.544 2.41383 301.974 2.58492 302.29 2.9271C302.605 3.26929 302.762 3.71052 302.762 4.25081C302.762 4.80011 302.605 5.24585 302.29 5.58803ZM300.257 5.12203C300.428 5.36516 300.675 5.48673 301 5.48673C301.324 5.48673 301.569 5.36516 301.736 5.12203C301.907 4.8789 301.992 4.58849 301.992 4.25081C301.992 3.91763 301.907 3.62948 301.736 3.38635C301.569 3.14322 301.324 3.02166 301 3.02166C300.675 3.02166 300.428 3.14322 300.257 3.38635C300.09 3.62948 300.007 3.91763 300.007 4.25081C300.007 4.58849 300.09 4.8789 300.257 5.12203ZM303.402 6V2.50838H304.125V3.18374H304.139C304.184 2.99014 304.307 2.81454 304.51 2.65696C304.717 2.49487 304.933 2.41383 305.158 2.41383C305.203 2.41383 305.3 2.42058 305.449 2.43409V3.17699C305.327 3.15448 305.217 3.14322 305.118 3.14322C304.848 3.14322 304.623 3.24903 304.442 3.46064C304.262 3.67225 304.172 3.96491 304.172 4.33861V6H303.402ZM307.305 3.08244V2.50838H307.886V1.46157H308.656V2.50838H309.352V3.08244H308.656V4.94644C308.656 5.12653 308.676 5.2526 308.717 5.32464C308.762 5.39217 308.865 5.42594 309.027 5.42594C309.171 5.42594 309.28 5.41694 309.352 5.39893V5.99325C309.126 6.02026 308.96 6.03377 308.852 6.03377C308.474 6.03377 308.219 5.96623 308.089 5.83116C307.963 5.69158 307.895 5.46196 307.886 5.14229V3.08244H307.305ZM309.905 6V1.17792H310.675V2.96763H310.689C310.788 2.80554 310.93 2.67272 311.114 2.56916C311.303 2.46561 311.511 2.41383 311.736 2.41383C312.123 2.41383 312.425 2.51513 312.641 2.71774C312.861 2.92035 312.972 3.21526 312.972 3.60247V6H312.202V3.80507C312.193 3.53043 312.134 3.33232 312.026 3.21076C311.918 3.08469 311.749 3.02166 311.52 3.02166C311.267 3.02166 311.063 3.10945 310.905 3.28505C310.752 3.46064 310.675 3.67901 310.675 3.94015V6H309.905ZM316.951 4.45342H314.385C314.385 4.74608 314.463 4.99146 314.621 5.18957C314.783 5.38767 315.017 5.48673 315.323 5.48673C315.756 5.48673 316.039 5.29312 316.174 4.90591H316.904C316.823 5.27961 316.636 5.57227 316.343 5.78388C316.055 5.991 315.715 6.09455 315.323 6.09455C314.783 6.09455 314.362 5.92796 314.06 5.59478C313.763 5.2571 313.615 4.81136 313.615 4.25757C313.615 3.74429 313.77 3.30981 314.081 2.95412C314.391 2.59393 314.799 2.41383 315.303 2.41383C315.839 2.41383 316.264 2.61869 316.579 3.02841C316.895 3.43813 317.018 3.91313 316.951 4.45342ZM314.385 3.9469H316.181C316.163 3.69026 316.075 3.4719 315.918 3.2918C315.76 3.1117 315.555 3.02166 315.303 3.02166C315.042 3.02166 314.826 3.10945 314.655 3.28505C314.484 3.46064 314.394 3.68126 314.385 3.9469ZM322.995 5.12878L320.841 2.85281H319.355V2.37331H321.023L323.178 4.64928H324.663V5.12878H322.995ZM322.995 2.85281V2.37331H324.663V2.85281H322.995ZM329.934 6L328.853 2.50838H329.67L330.352 5.11528H330.366L331.021 2.50838H331.798L332.426 5.11528H332.439L333.148 2.50838H333.932L332.838 6H332.047L331.399 3.40661H331.386L330.744 6H329.934ZM337.317 5.58803C337.002 5.92571 336.572 6.09455 336.027 6.09455C335.483 6.09455 335.053 5.92571 334.738 5.58803C334.422 5.24585 334.265 4.80011 334.265 4.25081C334.265 3.71052 334.422 3.26929 334.738 2.9271C335.053 2.58492 335.483 2.41383 336.027 2.41383C336.572 2.41383 337.002 2.58492 337.317 2.9271C337.633 3.26929 337.79 3.71052 337.79 4.25081C337.79 4.80011 337.633 5.24585 337.317 5.58803ZM335.285 5.12203C335.456 5.36516 335.703 5.48673 336.027 5.48673C336.352 5.48673 336.597 5.36516 336.764 5.12203C336.935 4.8789 337.02 4.58849 337.02 4.25081C337.02 3.91763 336.935 3.62948 336.764 3.38635C336.597 3.14322 336.352 3.02166 336.027 3.02166C335.703 3.02166 335.456 3.14322 335.285 3.38635C335.118 3.62948 335.035 3.91763 335.035 4.25081C335.035 4.58849 335.118 4.8789 335.285 5.12203ZM338.43 6V2.50838H339.153V3.18374H339.166C339.211 2.99014 339.335 2.81454 339.538 2.65696C339.745 2.49487 339.961 2.41383 340.186 2.41383C340.231 2.41383 340.328 2.42058 340.477 2.43409V3.17699C340.355 3.15448 340.245 3.14322 340.146 3.14322C339.875 3.14322 339.65 3.24903 339.47 3.46064C339.29 3.67225 339.2 3.96491 339.2 4.33861V6H338.43ZM340.825 6V1.17792H341.595V6H340.825ZM345.723 1.17792V6H344.993V5.52725H344.98C344.786 5.90545 344.426 6.09455 343.899 6.09455C343.368 6.09455 342.963 5.92121 342.683 5.57452C342.404 5.22784 342.265 4.77985 342.265 4.23055C342.265 3.63623 342.411 3.18599 342.704 2.87983C343.001 2.56916 343.359 2.41383 343.778 2.41383C344.012 2.41383 344.235 2.4611 344.446 2.55566C344.662 2.6457 344.827 2.78078 344.939 2.96087H344.953V1.17792H345.723ZM343.035 4.29133C343.035 4.62001 343.116 4.90141 343.278 5.13554C343.444 5.36966 343.685 5.48673 344 5.48673C344.32 5.48673 344.563 5.36516 344.73 5.12203C344.896 4.8789 344.98 4.58849 344.98 4.25081C344.98 3.86361 344.892 3.56194 344.716 3.34583C344.545 3.12971 344.311 3.02166 344.014 3.02166C343.681 3.02166 343.433 3.14547 343.271 3.3931C343.113 3.64074 343.035 3.94015 343.035 4.29133ZM349.205 6L348.125 2.50838H348.942L349.624 5.11528H349.637L350.292 2.50838H351.069L351.697 5.11528H351.711L352.42 2.50838H353.203L352.109 6H351.319L350.671 3.40661H350.657L350.016 6H349.205ZM353.719 1.90731V1.17792H354.489V1.90731H353.719ZM353.719 6V2.50838H354.489V6H353.719ZM358.616 1.17792V6H357.887V5.52725H357.874C357.68 5.90545 357.32 6.09455 356.793 6.09455C356.262 6.09455 355.856 5.92121 355.577 5.57452C355.298 5.22784 355.159 4.77985 355.159 4.23055C355.159 3.63623 355.305 3.18599 355.598 2.87983C355.895 2.56916 356.253 2.41383 356.671 2.41383C356.906 2.41383 357.128 2.4611 357.34 2.55566C357.556 2.6457 357.72 2.78078 357.833 2.96087H357.847V1.17792H358.616ZM355.929 4.29133C355.929 4.62001 356.01 4.90141 356.172 5.13554C356.338 5.36966 356.579 5.48673 356.894 5.48673C357.214 5.48673 357.457 5.36516 357.624 5.12203C357.79 4.8789 357.874 4.58849 357.874 4.25081C357.874 3.86361 357.786 3.56194 357.61 3.34583C357.439 3.12971 357.205 3.02166 356.908 3.02166C356.575 3.02166 356.327 3.14547 356.165 3.3931C356.007 3.64074 355.929 3.94015 355.929 4.29133ZM362.624 4.45342H360.057C360.057 4.74608 360.136 4.99146 360.294 5.18957C360.456 5.38767 360.69 5.48673 360.996 5.48673C361.428 5.48673 361.712 5.29312 361.847 4.90591H362.576C362.495 5.27961 362.308 5.57227 362.016 5.78388C361.728 5.991 361.388 6.09455 360.996 6.09455C360.456 6.09455 360.035 5.92796 359.733 5.59478C359.436 5.2571 359.287 4.81136 359.287 4.25757C359.287 3.74429 359.443 3.30981 359.753 2.95412C360.064 2.59393 360.471 2.41383 360.976 2.41383C361.511 2.41383 361.937 2.61869 362.252 3.02841C362.567 3.43813 362.691 3.91313 362.624 4.45342ZM360.057 3.9469H361.854C361.836 3.69026 361.748 3.4719 361.59 3.2918C361.433 3.1117 361.228 3.02166 360.976 3.02166C360.715 3.02166 360.498 3.10945 360.327 3.28505C360.156 3.46064 360.066 3.68126 360.057 3.9469ZM365.852 6L364.771 2.50838H365.588L366.27 5.11528H366.284L366.939 2.50838H367.716L368.344 5.11528H368.357L369.066 2.50838H369.85L368.756 6H367.966L367.317 3.40661H367.304L366.662 6H365.852ZM373.512 4.45342H370.946C370.946 4.74608 371.025 4.99146 371.182 5.18957C371.345 5.38767 371.579 5.48673 371.885 5.48673C372.317 5.48673 372.601 5.29312 372.736 4.90591H373.465C373.384 5.27961 373.197 5.57227 372.905 5.78388C372.616 5.991 372.277 6.09455 371.885 6.09455C371.345 6.09455 370.924 5.92796 370.622 5.59478C370.325 5.2571 370.176 4.81136 370.176 4.25757C370.176 3.74429 370.331 3.30981 370.642 2.95412C370.953 2.59393 371.36 2.41383 371.865 2.41383C372.4 2.41383 372.826 2.61869 373.141 3.02841C373.456 3.43813 373.58 3.91313 373.512 4.45342ZM370.946 3.9469H372.743C372.725 3.69026 372.637 3.4719 372.479 3.2918C372.322 3.1117 372.117 3.02166 371.865 3.02166C371.603 3.02166 371.387 3.10945 371.216 3.28505C371.045 3.46064 370.955 3.68126 370.946 3.9469ZM374.118 6V1.17792H374.888V2.96087H374.901C375.009 2.79428 375.158 2.66146 375.347 2.56241C375.541 2.46336 375.739 2.41383 375.941 2.41383C376.468 2.41383 376.871 2.58942 377.15 2.94061C377.434 3.2873 377.576 3.73078 377.576 4.27107C377.576 4.77985 377.445 5.21208 377.184 5.56777C376.928 5.91896 376.556 6.09455 376.07 6.09455C375.457 6.09455 375.055 5.9032 374.861 5.52049H374.847V6H374.118ZM376.806 4.25757C376.806 3.91989 376.72 3.62948 376.549 3.38635C376.378 3.14322 376.142 3.02166 375.84 3.02166C375.521 3.02166 375.277 3.13196 375.111 3.35258C374.944 3.5732 374.861 3.87486 374.861 4.25757C374.861 4.61776 374.949 4.91267 375.124 5.14229C375.3 5.37191 375.539 5.48673 375.84 5.48673C376.164 5.48673 376.405 5.36741 376.563 5.12878C376.725 4.89016 376.806 4.59975 376.806 4.25757Z" fill="#FF0000"/>
<path d="M337.884 17.5762V14.0846H338.613V14.5708H338.633C338.764 14.3772 338.91 14.2331 339.072 14.1386C339.234 14.0395 339.446 13.99 339.707 13.99C339.932 13.99 340.133 14.0395 340.308 14.1386C340.484 14.2376 340.61 14.3817 340.686 14.5708C340.97 14.1836 341.335 13.99 341.781 13.99C342.559 13.99 342.949 14.3817 342.949 15.1651V17.5762H342.179V15.5366C342.179 15.406 342.177 15.3025 342.172 15.2259C342.168 15.1449 342.152 15.0593 342.125 14.9693C342.102 14.8792 342.069 14.8117 342.024 14.7667C341.983 14.7171 341.922 14.6766 341.841 14.6451C341.76 14.6136 341.661 14.5978 341.544 14.5978C341.049 14.5978 340.801 14.9085 340.801 15.5298V17.5762H340.031V15.334C340.031 15.0818 339.984 14.8972 339.89 14.7802C339.8 14.6586 339.642 14.5978 339.417 14.5978C339.205 14.5978 339.025 14.6811 338.877 14.8477C338.728 15.0098 338.654 15.2282 338.654 15.5028V17.5762H337.884ZM346.651 17.1642C346.336 17.5019 345.906 17.6707 345.361 17.6707C344.816 17.6707 344.386 17.5019 344.071 17.1642C343.756 16.822 343.598 16.3763 343.598 15.827C343.598 15.2867 343.756 14.8455 344.071 14.5033C344.386 14.1611 344.816 13.99 345.361 13.99C345.906 13.99 346.336 14.1611 346.651 14.5033C346.966 14.8455 347.123 15.2867 347.123 15.827C347.123 16.3763 346.966 16.822 346.651 17.1642ZM344.618 16.6982C344.789 16.9413 345.037 17.0629 345.361 17.0629C345.685 17.0629 345.93 16.9413 346.097 16.6982C346.268 16.4551 346.354 16.1647 346.354 15.827C346.354 15.4938 346.268 15.2057 346.097 14.9625C345.93 14.7194 345.685 14.5978 345.361 14.5978C345.037 14.5978 344.789 14.7194 344.618 14.9625C344.451 15.2057 344.368 15.4938 344.368 15.827C344.368 16.1647 344.451 16.4551 344.618 16.6982ZM347.764 17.5762V14.0846H348.493V14.5708H348.513C348.644 14.3772 348.79 14.2331 348.952 14.1386C349.114 14.0395 349.326 13.99 349.587 13.99C349.812 13.99 350.012 14.0395 350.188 14.1386C350.364 14.2376 350.49 14.3817 350.566 14.5708C350.85 14.1836 351.215 13.99 351.66 13.99C352.439 13.99 352.829 14.3817 352.829 15.1651V17.5762H352.059V15.5366C352.059 15.406 352.057 15.3025 352.052 15.2259C352.048 15.1449 352.032 15.0593 352.005 14.9693C351.982 14.8792 351.949 14.8117 351.904 14.7667C351.863 14.7171 351.802 14.6766 351.721 14.6451C351.64 14.6136 351.541 14.5978 351.424 14.5978C350.929 14.5978 350.681 14.9085 350.681 15.5298V17.5762H349.911V15.334C349.911 15.0818 349.864 14.8972 349.769 14.7802C349.679 14.6586 349.522 14.5978 349.297 14.5978C349.085 14.5978 348.905 14.6811 348.756 14.8477C348.608 15.0098 348.533 15.2282 348.533 15.5028V17.5762H347.764ZM356.807 16.0296H354.241C354.241 16.3223 354.32 16.5676 354.477 16.7657C354.64 16.9638 354.874 17.0629 355.18 17.0629C355.612 17.0629 355.896 16.8693 356.031 16.4821H356.76C356.679 16.8558 356.492 17.1484 356.2 17.3601C355.911 17.5672 355.572 17.6707 355.18 17.6707C354.64 17.6707 354.219 17.5041 353.917 17.171C353.62 16.8333 353.471 16.3875 353.471 15.8337C353.471 15.3205 353.626 14.886 353.937 14.5303C354.248 14.1701 354.655 13.99 355.16 13.99C355.695 13.99 356.121 14.1949 356.436 14.6046C356.751 15.0143 356.875 15.4893 356.807 16.0296ZM354.241 15.5231H356.038C356.019 15.2664 355.932 15.0481 355.774 14.868C355.617 14.6879 355.412 14.5978 355.16 14.5978C354.898 14.5978 354.682 14.6856 354.511 14.8612C354.34 15.0368 354.25 15.2574 354.241 15.5231ZM357.393 17.5762V14.0846H358.122V14.5978L358.136 14.6113C358.257 14.4177 358.413 14.2669 358.602 14.1588C358.791 14.0463 358.998 13.99 359.223 13.99C359.61 13.99 359.912 14.0913 360.128 14.2939C360.349 14.4965 360.459 14.7914 360.459 15.1786V17.5762H359.689V15.3812C359.68 15.1066 359.621 14.9085 359.513 14.7869C359.405 14.6609 359.236 14.5978 359.007 14.5978C358.755 14.5978 358.55 14.6856 358.392 14.8612C358.239 15.0368 358.163 15.2552 358.163 15.5163V17.5762H357.393ZM360.92 14.6586V14.0846H361.5V13.0377H362.27V14.0846H362.966V14.6586H362.27V16.5226C362.27 16.7027 362.291 16.8288 362.331 16.9008C362.376 16.9683 362.48 17.0021 362.642 17.0021C362.786 17.0021 362.894 16.9931 362.966 16.9751V17.5694C362.741 17.5964 362.574 17.6099 362.466 17.6099C362.088 17.6099 361.834 17.5424 361.703 17.4073C361.577 17.2678 361.509 17.0381 361.5 16.7185V14.6586H360.92ZM366.676 15.003V14.1588H367.365V15.003H368.722V15.6919H367.365V16.5361H366.676V15.6919H365.318V15.003H366.676ZM365.318 17.5762V16.8873H368.722V17.5762H365.318ZM374.915 12.7541L375.678 14.7261L376.434 12.7541H377.211V15.5366H376.705V13.3619H376.691L375.86 15.5366H375.482L374.651 13.3619H374.638V15.5366H374.131V12.7541H374.915ZM373.564 12.7541V13.1931H372.713V15.5366H372.173V13.1931H371.322V12.7541H373.564Z" fill="#FF0000"/>
<path d="M3.85632 18.0422L3.50513 17.3938V17.2655L3.85632 16.6104H4.0184V17.0832H4.75455C4.89862 17.0832 5.01794 17.0719 5.11249 17.0494C5.20704 17.0269 5.27683 16.9886 5.32185 16.9346C5.37138 16.876 5.39614 16.8018 5.39614 16.7117C5.39614 16.6307 5.37588 16.5339 5.33536 16.4213C5.29484 16.3042 5.22955 16.1759 5.1395 16.0363L4.49791 14.976L4.93014 14.7194L5.59199 15.8202C5.70906 16.0138 5.7946 16.1917 5.84863 16.3538C5.90266 16.5159 5.92968 16.6622 5.92968 16.7928C5.92968 16.9728 5.8824 17.1214 5.78785 17.2385C5.6978 17.3556 5.56498 17.4411 5.38939 17.4951C5.21829 17.5492 5.01343 17.5762 4.77481 17.5762H4.0184V18.0422H3.85632ZM1.78295 17.5762C1.35072 17.5762 1.01529 17.5109 0.776666 17.3803C0.538038 17.2452 0.418724 17.0449 0.418724 16.7792C0.418724 16.6622 0.441236 16.5361 0.48626 16.401C0.535787 16.266 0.605574 16.1219 0.695623 15.9688L1.08058 15.3272L0.675362 15.0773L0.769912 14.9423L1.50606 14.976L1.61411 15.0436L1.99232 15.6717L1.91127 15.8202L1.50606 15.5839L1.12785 16.2052C1.06932 16.3042 1.0243 16.3943 0.992782 16.4753C0.965767 16.5519 0.95226 16.6217 0.95226 16.6847C0.95226 16.7522 0.97027 16.813 1.00629 16.867C1.04681 16.9166 1.10309 16.9571 1.17513 16.9886C1.24267 17.0156 1.33046 17.0381 1.43852 17.0561C1.55108 17.0742 1.6794 17.0832 1.82348 17.0832H3.06614V17.5762H1.78295ZM1.97206 14.8207L1.53982 14.5641L2.20168 13.4497C2.37277 13.1616 2.54386 12.9477 2.71495 12.8081C2.88605 12.664 3.06164 12.592 3.24174 12.592C3.34979 12.592 3.45335 12.619 3.5524 12.673C3.65596 12.7271 3.75501 12.8081 3.84956 12.9162C3.94411 13.0242 4.03416 13.1593 4.11971 13.3214L4.47765 13.9968L4.90313 13.7739L4.97742 13.909L4.57895 14.537L4.46414 14.6113L3.728 14.5978L3.64695 14.456L4.05892 14.2331L3.70774 13.5915C3.62669 13.443 3.5479 13.3326 3.47136 13.2606C3.39482 13.1841 3.31603 13.1458 3.23498 13.1458C3.13593 13.1458 3.03463 13.1976 2.93107 13.3011C2.82751 13.4047 2.71721 13.5555 2.60014 13.7536L1.97206 14.8207ZM9.56143 17.5762L8.29175 14.0846H9.1292L10.0139 16.7657H10.0274L10.8784 14.0846H11.6753L10.4259 17.5762H9.56143ZM13.2527 17.5762V14.2399H12.091V13.6321C12.4467 13.6321 12.7529 13.569 13.0095 13.443C13.2662 13.3169 13.4192 13.1188 13.4688 12.8486H14.0969V17.5762H13.2527ZM15.9518 17.5762V16.6644H16.8906V17.5762H15.9518ZM20.0669 17.4479C19.8418 17.5964 19.5672 17.6707 19.243 17.6707C18.9188 17.6707 18.6442 17.5964 18.4191 17.4479C18.1939 17.2948 18.0251 17.0899 17.9125 16.8333C17.8 16.5766 17.7212 16.3177 17.6762 16.0566C17.6311 15.7955 17.6086 15.5141 17.6086 15.2124C17.6086 14.9107 17.6311 14.6293 17.6762 14.3682C17.7212 14.1071 17.8 13.8482 17.9125 13.5915C18.0251 13.3349 18.1939 13.1323 18.4191 12.9837C18.6442 12.8306 18.9188 12.7541 19.243 12.7541C19.5672 12.7541 19.8418 12.8306 20.0669 12.9837C20.2921 13.1323 20.4609 13.3349 20.5735 13.5915C20.686 13.8482 20.7648 14.1071 20.8098 14.3682C20.8549 14.6293 20.8774 14.9107 20.8774 15.2124C20.8774 15.5141 20.8549 15.7955 20.8098 16.0566C20.7648 16.3177 20.686 16.5766 20.5735 16.8333C20.4609 17.0899 20.2921 17.2948 20.0669 17.4479ZM18.3785 15.2124C18.3785 16.4236 18.6667 17.0291 19.243 17.0291C19.8193 17.0291 20.1075 16.4236 20.1075 15.2124C20.1075 14.0013 19.8193 13.3957 19.243 13.3957C18.6667 13.3957 18.3785 14.0013 18.3785 15.2124ZM21.5842 17.5762V16.6644H22.523V17.5762H21.5842ZM25.6994 17.4479C25.4742 17.5964 25.1996 17.6707 24.8754 17.6707C24.5512 17.6707 24.2766 17.5964 24.0515 17.4479C23.8264 17.2948 23.6575 17.0899 23.545 16.8333C23.4324 16.5766 23.3536 16.3177 23.3086 16.0566C23.2636 15.7955 23.241 15.5141 23.241 15.2124C23.241 14.9107 23.2636 14.6293 23.3086 14.3682C23.3536 14.1071 23.4324 13.8482 23.545 13.5915C23.6575 13.3349 23.8264 13.1323 24.0515 12.9837C24.2766 12.8306 24.5512 12.7541 24.8754 12.7541C25.1996 12.7541 25.4742 12.8306 25.6994 12.9837C25.9245 13.1323 26.0933 13.3349 26.2059 13.5915C26.3184 13.8482 26.3972 14.1071 26.4423 14.3682C26.4873 14.6293 26.5098 14.9107 26.5098 15.2124C26.5098 15.5141 26.4873 15.7955 26.4423 16.0566C26.3972 16.3177 26.3184 16.5766 26.2059 16.8333C26.0933 17.0899 25.9245 17.2948 25.6994 17.4479ZM24.011 15.2124C24.011 16.4236 24.2991 17.0291 24.8754 17.0291C25.4517 17.0291 25.7399 16.4236 25.7399 15.2124C25.7399 14.0013 25.4517 13.3957 24.8754 13.3957C24.2991 13.3957 24.011 14.0013 24.011 15.2124Z" fill="#FF0000"/>
<path d="M4.25478 1.41429L4.61272 1.57638C4.45739 2.20447 4.24802 2.77852 3.99814 3.29855C4.45739 4.5142 5.36237 5.58803 6.50373 6.06754C6.38217 6.16209 6.22683 6.37145 6.14579 6.50652C5.07197 6 4.23452 5.02748 3.69423 3.8456C2.93107 5.11528 1.87075 6.00675 0.715883 6.53354C0.641594 6.40522 0.452492 6.18235 0.330927 6.09455C1.9653 5.39893 3.35655 4.0347 3.95762 1.94108H2.19493C1.7762 2.738 1.26968 3.42687 0.702376 3.93339C0.607825 3.83884 0.384956 3.6565 0.256637 3.5687C1.16162 2.83931 1.87075 1.65742 2.28948 0.353977L2.81626 0.475542C2.7082 0.806469 2.57988 1.13064 2.43806 1.44131H4.16023L4.25478 1.41429ZM13.1628 4.80461H10.6572C11.1029 5.55426 11.9607 5.93922 13.2641 6.06754C13.1493 6.16884 13.0142 6.38496 12.9534 6.52003C11.5082 6.33768 10.6167 5.82441 10.1372 4.80461H10.1034C9.76573 5.68258 9.02959 6.22962 7.28715 6.51327C7.24663 6.38496 7.12507 6.17559 7.03051 6.07429C8.54332 5.85142 9.21869 5.4462 9.54286 4.80461H7.11831V4.36562H9.7117C9.75898 4.17652 9.79274 3.96716 9.81976 3.74429H7.16559V3.28505H9.86703V2.7245H7.76666V2.28551H9.86703V1.73847H7.43573V1.28598H8.79996C8.6919 1.04285 8.49605 0.738933 8.29344 0.516063L8.72567 0.340469C8.9688 0.583599 9.21193 0.934787 9.31324 1.18467L9.09712 1.28598H11.1097L10.8598 1.19818C11.0489 0.968555 11.2988 0.590353 11.4406 0.340469L11.9539 0.495802C11.7648 0.792962 11.5352 1.07661 11.3461 1.28598H12.8319V1.73847H10.3668V2.28551H12.5347V2.7245H10.3668V3.28505H13.0953V3.74429H10.3398C10.3195 3.96716 10.2858 4.16977 10.2385 4.36562H13.1628V4.80461ZM19.9367 3.34583V3.8456H17.1542V5.86493C17.1542 6.20261 17.0664 6.35794 16.8165 6.43899C16.5666 6.52003 16.1276 6.53354 15.486 6.52678C15.4455 6.38496 15.3577 6.15533 15.2699 6.01351C15.8102 6.03377 16.31 6.03377 16.4518 6.02701C16.6004 6.02026 16.6409 5.98649 16.6409 5.86493V3.8456H13.8517V3.34583H16.6409V2.26525H16.9583C17.4378 2.00186 17.9579 1.64392 18.3496 1.30624H14.5473V0.819976H18.8764L18.9979 0.792962L19.3626 1.06986C18.7886 1.65067 17.9038 2.27876 17.1542 2.68397V3.34583H19.9367ZM22.2013 3.08244V2.50838H22.7754V2.21797C22.7754 1.81276 22.8609 1.53811 23.032 1.39403C23.2076 1.24996 23.444 1.17792 23.7411 1.17792C23.9933 1.17792 24.1734 1.19368 24.2814 1.22519V1.82626C24.1779 1.79925 24.0585 1.78574 23.9235 1.78574C23.6713 1.78574 23.5453 1.90731 23.5453 2.15044V2.50838H24.2004V3.08244H23.5453V6H22.7754V3.08244H22.2013ZM27.5666 5.58803C27.2514 5.92571 26.8214 6.09455 26.2766 6.09455C25.7318 6.09455 25.3019 5.92571 24.9867 5.58803C24.6715 5.24585 24.5139 4.80011 24.5139 4.25081C24.5139 3.71052 24.6715 3.26929 24.9867 2.9271C25.3019 2.58492 25.7318 2.41383 26.2766 2.41383C26.8214 2.41383 27.2514 2.58492 27.5666 2.9271C27.8817 3.26929 28.0393 3.71052 28.0393 4.25081C28.0393 4.80011 27.8817 5.24585 27.5666 5.58803ZM25.5337 5.12203C25.7048 5.36516 25.9525 5.48673 26.2766 5.48673C26.6008 5.48673 26.8462 5.36516 27.0128 5.12203C27.1839 4.8789 27.2694 4.58849 27.2694 4.25081C27.2694 3.91763 27.1839 3.62948 27.0128 3.38635C26.8462 3.14322 26.6008 3.02166 26.2766 3.02166C25.9525 3.02166 25.7048 3.14322 25.5337 3.38635C25.3671 3.62948 25.2839 3.91763 25.2839 4.25081C25.2839 4.58849 25.3671 4.8789 25.5337 5.12203ZM28.6794 6V2.50838H29.402V3.18374H29.4155C29.4606 2.99014 29.5844 2.81454 29.787 2.65696C29.9941 2.49487 30.2102 2.41383 30.4353 2.41383C30.4804 2.41383 30.5772 2.42058 30.7257 2.43409V3.17699C30.6042 3.15448 30.4939 3.14322 30.3948 3.14322C30.1247 3.14322 29.8995 3.24903 29.7194 3.46064C29.5394 3.67225 29.4493 3.96491 29.4493 4.33861V6H28.6794ZM32.9536 1.90731V1.17792H33.7236V1.90731H32.9536ZM32.9536 6V2.50838H33.7236V6H32.9536ZM34.5624 6V2.50838H35.2918V3.02166L35.3053 3.03516C35.4269 2.84156 35.5822 2.69073 35.7713 2.58267C35.9604 2.47011 36.1675 2.41383 36.3927 2.41383C36.7799 2.41383 37.0815 2.51513 37.2976 2.71774C37.5183 2.92035 37.6286 3.21526 37.6286 3.60247V6H36.8587V3.80507C36.8496 3.53043 36.7911 3.33232 36.6831 3.21076C36.575 3.08469 36.4062 3.02166 36.1765 3.02166C35.9244 3.02166 35.7195 3.10945 35.562 3.28505C35.4089 3.46064 35.3323 3.67901 35.3323 3.94015V6H34.5624ZM38.0893 3.08244V2.50838H38.6701V1.46157H39.44V2.50838H40.1356V3.08244H39.44V4.94644C39.44 5.12653 39.4603 5.2526 39.5008 5.32464C39.5458 5.39217 39.6494 5.42594 39.8115 5.42594C39.9555 5.42594 40.0636 5.41694 40.1356 5.39893V5.99325C39.9105 6.02026 39.7439 6.03377 39.6359 6.03377C39.2577 6.03377 39.0033 5.96623 38.8727 5.83116C38.7466 5.69158 38.6791 5.46196 38.6701 5.14229V3.08244H38.0893ZM43.8569 4.45342H41.2906C41.2906 4.74608 41.3693 4.99146 41.5269 5.18957C41.689 5.38767 41.9231 5.48673 42.2293 5.48673C42.6615 5.48673 42.9452 5.29312 43.0803 4.90591H43.8097C43.7286 5.27961 43.5418 5.57227 43.2491 5.78388C42.961 5.991 42.621 6.09455 42.2293 6.09455C41.689 6.09455 41.268 5.92796 40.9664 5.59478C40.6692 5.2571 40.5206 4.81136 40.5206 4.25757C40.5206 3.74429 40.676 3.30981 40.9866 2.95412C41.2973 2.59393 41.7048 2.41383 42.209 2.41383C42.7448 2.41383 43.1703 2.61869 43.4855 3.02841C43.8007 3.43813 43.9245 3.91313 43.8569 4.45342ZM41.2906 3.9469H43.087C43.069 3.69026 42.9812 3.4719 42.8236 3.2918C42.666 3.1117 42.4612 3.02166 42.209 3.02166C41.9479 3.02166 41.7318 3.10945 41.5607 3.28505C41.3896 3.46064 41.2996 3.68126 41.2906 3.9469ZM44.4422 6V2.50838H45.1649V3.18374H45.1784C45.2234 2.99014 45.3472 2.81454 45.5498 2.65696C45.7569 2.49487 45.973 2.41383 46.1982 2.41383C46.2432 2.41383 46.34 2.42058 46.4886 2.43409V3.17699C46.367 3.15448 46.2567 3.14322 46.1576 3.14322C45.8875 3.14322 45.6624 3.24903 45.4823 3.46064C45.3022 3.67225 45.2121 3.96491 45.2121 4.33861V6H44.4422ZM46.8368 7.28994V2.50838H47.5662V2.98113H47.5797C47.7823 2.60293 48.1425 2.41383 48.6603 2.41383C49.1871 2.41383 49.59 2.58942 49.8692 2.94061C50.1528 3.2873 50.2947 3.73078 50.2947 4.27107C50.2947 4.77985 50.1641 5.21208 49.9029 5.56777C49.6463 5.91896 49.2749 6.09455 48.7886 6.09455C48.5455 6.09455 48.3181 6.04953 48.1065 5.95948C47.8949 5.86493 47.7328 5.7276 47.6202 5.54751H47.6067V7.28994H46.8368ZM49.5247 4.25757C49.5247 3.91989 49.4392 3.62948 49.2681 3.38635C49.097 3.14322 48.8606 3.02166 48.559 3.02166C48.2393 3.02166 47.9962 3.13196 47.8296 3.35258C47.663 3.5732 47.5797 3.87486 47.5797 4.25757C47.5797 4.61776 47.6675 4.91267 47.8431 5.14229C48.0187 5.37191 48.2573 5.48673 48.559 5.48673C48.8832 5.48673 49.124 5.36741 49.2816 5.12878C49.4437 4.89016 49.5247 4.59975 49.5247 4.25757ZM50.9655 6V1.17792H51.7354V6H50.9655ZM55.4986 3.42687V5.22333C55.4986 5.31788 55.5121 5.38542 55.5391 5.42594C55.5661 5.46646 55.6134 5.48673 55.6809 5.48673C55.7575 5.48673 55.8205 5.48222 55.87 5.47322V6.00675C55.7034 6.06528 55.5414 6.09455 55.3838 6.09455C55.0416 6.09455 54.8435 5.95272 54.7895 5.66907C54.6454 5.80865 54.463 5.91445 54.2424 5.98649C54.0218 6.05853 53.8012 6.09455 53.5806 6.09455C53.2384 6.09455 52.9525 6.00675 52.7228 5.83116C52.4977 5.65106 52.3852 5.39893 52.3852 5.07475C52.3852 4.90817 52.4099 4.76409 52.4595 4.64252C52.5135 4.51646 52.5788 4.4174 52.6553 4.34536C52.7318 4.27333 52.8332 4.21254 52.9592 4.16302C53.0853 4.10899 53.2001 4.07072 53.3037 4.0482C53.4117 4.02569 53.5423 4.00543 53.6954 3.98742L54.1208 3.93339C54.3685 3.90188 54.5396 3.85685 54.6341 3.79832C54.7287 3.73979 54.7759 3.63849 54.7759 3.49441C54.7759 3.17924 54.5351 3.02166 54.0533 3.02166C53.8282 3.02166 53.6481 3.06893 53.513 3.16348C53.3779 3.25353 53.3014 3.39085 53.2834 3.57545H52.5135C52.5405 3.16123 52.7003 2.86407 52.993 2.68397C53.2901 2.50388 53.6593 2.41383 54.1006 2.41383C54.4833 2.41383 54.812 2.49712 55.0866 2.66371C55.3613 2.8303 55.4986 3.08469 55.4986 3.42687ZM54.7287 4.82487V4.25081C54.6071 4.32285 54.409 4.37688 54.1344 4.4129L53.8237 4.45342C53.3779 4.51195 53.1551 4.69655 53.1551 5.00722C53.1551 5.16931 53.2181 5.29087 53.3442 5.37191C53.4747 5.44845 53.6323 5.48673 53.8169 5.48673C54.0556 5.48673 54.2672 5.4327 54.4518 5.32464C54.6364 5.21208 54.7287 5.04549 54.7287 4.82487ZM56.327 6V2.50838H57.0564V3.02166L57.0699 3.03516C57.1915 2.84156 57.3468 2.69073 57.5359 2.58267C57.725 2.47011 57.9321 2.41383 58.1572 2.41383C58.5444 2.41383 58.8461 2.51513 59.0622 2.71774C59.2828 2.92035 59.3931 3.21526 59.3931 3.60247V6H58.6232V3.80507C58.6142 3.53043 58.5557 3.33232 58.4476 3.21076C58.3396 3.08469 58.1707 3.02166 57.9411 3.02166C57.689 3.02166 57.4841 3.10945 57.3265 3.28505C57.1735 3.46064 57.0969 3.67901 57.0969 3.94015V6H56.327ZM63.3725 4.45342H60.8061C60.8061 4.74608 60.8849 4.99146 61.0425 5.18957C61.2046 5.38767 61.4387 5.48673 61.7449 5.48673C62.1771 5.48673 62.4608 5.29312 62.5958 4.90591H63.3252C63.2442 5.27961 63.0573 5.57227 62.7647 5.78388C62.4765 5.991 62.1366 6.09455 61.7449 6.09455C61.2046 6.09455 60.7836 5.92796 60.482 5.59478C60.1848 5.2571 60.0362 4.81136 60.0362 4.25757C60.0362 3.74429 60.1916 3.30981 60.5022 2.95412C60.8129 2.59393 61.2204 2.41383 61.7246 2.41383C62.2604 2.41383 62.6859 2.61869 63.0011 3.02841C63.3162 3.43813 63.44 3.91313 63.3725 4.45342ZM60.8061 3.9469H62.6026C62.5846 3.69026 62.4968 3.4719 62.3392 3.2918C62.1816 3.1117 61.9768 3.02166 61.7246 3.02166C61.4635 3.02166 61.2474 3.10945 61.0763 3.28505C60.9052 3.46064 60.8151 3.68126 60.8061 3.9469ZM63.6066 3.08244V2.50838H64.1874V1.46157H64.9573V2.50838H65.653V3.08244H64.9573V4.94644C64.9573 5.12653 64.9776 5.2526 65.0181 5.32464C65.0631 5.39217 65.1667 5.42594 65.3288 5.42594C65.4729 5.42594 65.5809 5.41694 65.653 5.39893V5.99325C65.4278 6.02026 65.2613 6.03377 65.1532 6.03377C64.775 6.03377 64.5206 5.96623 64.39 5.83116C64.264 5.69158 64.1964 5.46196 64.1874 5.14229V3.08244H63.6066ZM69.1311 3.42687V5.22333C69.1311 5.31788 69.1446 5.38542 69.1716 5.42594C69.1987 5.46646 69.2459 5.48673 69.3135 5.48673C69.39 5.48673 69.453 5.48222 69.5026 5.47322V6.00675C69.336 6.06528 69.1739 6.09455 69.0163 6.09455C68.6741 6.09455 68.476 5.95272 68.422 5.66907C68.2779 5.80865 68.0956 5.91445 67.875 5.98649C67.6543 6.05853 67.4337 6.09455 67.2131 6.09455C66.8709 6.09455 66.585 6.00675 66.3554 5.83116C66.1303 5.65106 66.0177 5.39893 66.0177 5.07475C66.0177 4.90817 66.0425 4.76409 66.092 4.64252C66.146 4.51646 66.2113 4.4174 66.2879 4.34536C66.3644 4.27333 66.4657 4.21254 66.5918 4.16302C66.7178 4.10899 66.8326 4.07072 66.9362 4.0482C67.0443 4.02569 67.1748 4.00543 67.3279 3.98742L67.7534 3.93339C68.001 3.90188 68.1721 3.85685 68.2667 3.79832C68.3612 3.73979 68.4085 3.63849 68.4085 3.49441C68.4085 3.17924 68.1676 3.02166 67.6858 3.02166C67.4607 3.02166 67.2806 3.06893 67.1456 3.16348C67.0105 3.25353 66.9339 3.39085 66.9159 3.57545H66.146C66.173 3.16123 66.3329 2.86407 66.6255 2.68397C66.9227 2.50388 67.2919 2.41383 67.7331 2.41383C68.1158 2.41383 68.4445 2.49712 68.7192 2.66371C68.9938 2.8303 69.1311 3.08469 69.1311 3.42687ZM68.3612 4.82487V4.25081C68.2396 4.32285 68.0415 4.37688 67.7669 4.4129L67.4562 4.45342C67.0105 4.51195 66.7876 4.69655 66.7876 5.00722C66.7876 5.16931 66.8507 5.29087 66.9767 5.37191C67.1073 5.44845 67.2649 5.48673 67.4495 5.48673C67.6881 5.48673 67.8997 5.4327 68.0843 5.32464C68.2689 5.21208 68.3612 5.04549 68.3612 4.82487ZM69.9596 6V2.50838H70.6822V3.18374H70.6957C70.7407 2.99014 70.8645 2.81454 71.0671 2.65696C71.2743 2.49487 71.4904 2.41383 71.7155 2.41383C71.7605 2.41383 71.8573 2.42058 72.0059 2.43409V3.17699C71.8843 3.15448 71.774 3.14322 71.675 3.14322C71.4048 3.14322 71.1797 3.24903 70.9996 3.46064C70.8195 3.67225 70.7295 3.96491 70.7295 4.33861V6H69.9596ZM73.2726 5.98649L71.9489 2.50838H72.7931L73.7049 5.11528H73.7184L74.6031 2.50838H75.4068L74.0493 6.1891C73.8917 6.58531 73.7701 6.8442 73.6846 6.96577C73.4865 7.24492 73.1961 7.38449 72.8134 7.38449C72.6333 7.38449 72.4554 7.37098 72.2798 7.34397V6.69562C72.4779 6.72714 72.5995 6.7429 72.6445 6.7429C72.8066 6.7429 72.9237 6.70238 72.9957 6.62133C73.0723 6.54479 73.1353 6.42323 73.1848 6.25664L73.2726 5.98649ZM80.7818 2.50838V6H80.0254V5.51374H80.0119C79.9173 5.68483 79.7755 5.82441 79.5864 5.93246C79.4018 6.04052 79.2127 6.09455 79.0191 6.09455C78.5644 6.09455 78.2334 5.98199 78.0263 5.75687C77.8192 5.53175 77.7157 5.18731 77.7157 4.72357V2.50838H78.4856V4.64928C78.4856 4.94644 78.5418 5.1603 78.6544 5.29087C78.767 5.42144 78.9336 5.48673 79.1542 5.48673C79.726 5.48673 80.0119 5.16931 80.0119 4.53447V2.50838H80.7818ZM81.4046 4.8789H82.1745C82.215 5.28412 82.4784 5.48673 82.9647 5.48673C83.0547 5.48673 83.138 5.48222 83.2146 5.47322C83.2956 5.45971 83.3789 5.43945 83.4645 5.41244C83.5545 5.38092 83.6243 5.33364 83.6738 5.27061C83.7233 5.20307 83.7459 5.12203 83.7414 5.02748C83.7369 4.96895 83.7233 4.91717 83.7008 4.87215C83.6828 4.82712 83.6491 4.78885 83.5995 4.75733C83.5545 4.72132 83.5095 4.69205 83.4645 4.66954C83.4194 4.64703 83.3564 4.62451 83.2754 4.602C83.1943 4.57949 83.1268 4.56148 83.0728 4.54797C83.0187 4.53447 82.9399 4.51871 82.8364 4.5007C82.7328 4.47819 82.654 4.46018 82.6 4.44667C82.4379 4.41065 82.2983 4.37238 82.1813 4.33186C82.0642 4.28683 81.9471 4.2283 81.8301 4.15626C81.7175 4.07972 81.6297 3.98067 81.5667 3.8591C81.5082 3.73304 81.4789 3.58446 81.4789 3.41336C81.4789 3.23327 81.5239 3.07568 81.614 2.94061C81.704 2.80104 81.8233 2.69523 81.9719 2.62319C82.1205 2.55115 82.2758 2.49938 82.4379 2.46786C82.6 2.43184 82.7666 2.41383 82.9377 2.41383C83.3294 2.41383 83.6603 2.50163 83.9305 2.67722C84.2006 2.84831 84.3559 3.11846 84.3965 3.48765H83.5928C83.5297 3.17699 83.2934 3.02166 82.8836 3.02166C82.7891 3.02166 82.6991 3.03066 82.6135 3.04867C82.528 3.06218 82.4447 3.0982 82.3636 3.15673C82.2871 3.21076 82.2488 3.28505 82.2488 3.3796C82.2488 3.43363 82.2578 3.48315 82.2758 3.52818C82.2938 3.5687 82.3276 3.60472 82.3771 3.63623C82.4267 3.66775 82.4717 3.69477 82.5122 3.71728C82.5527 3.73979 82.6158 3.76455 82.7013 3.79157C82.7914 3.81408 82.8589 3.83209 82.9039 3.8456C82.9534 3.8546 83.0345 3.87036 83.147 3.89287C83.2596 3.91538 83.3384 3.93114 83.3834 3.94015C83.55 3.97617 83.6896 4.01669 83.8021 4.06171C83.9192 4.10223 84.0363 4.16077 84.1533 4.23731C84.2704 4.31385 84.3582 4.4129 84.4167 4.53447C84.4798 4.65153 84.5113 4.79335 84.5113 4.95994C84.5113 5.22108 84.428 5.4417 84.2614 5.6218C84.0993 5.79739 83.9057 5.92121 83.6806 5.99325C83.4555 6.06078 83.2123 6.09455 82.9512 6.09455C82.4919 6.09455 82.1205 5.991 81.8368 5.78388C81.5577 5.57677 81.4136 5.27511 81.4046 4.8789ZM88.2633 4.45342H85.6969C85.6969 4.74608 85.7757 4.99146 85.9333 5.18957C86.0954 5.38767 86.3295 5.48673 86.6357 5.48673C87.0679 5.48673 87.3515 5.29312 87.4866 4.90591H88.216C88.135 5.27961 87.9481 5.57227 87.6555 5.78388C87.3673 5.991 87.0274 6.09455 86.6357 6.09455C86.0954 6.09455 85.6744 5.92796 85.3727 5.59478C85.0756 5.2571 84.927 4.81136 84.927 4.25757C84.927 3.74429 85.0823 3.30981 85.393 2.95412C85.7037 2.59393 86.1111 2.41383 86.6154 2.41383C87.1512 2.41383 87.5767 2.61869 87.8918 3.02841C88.207 3.43813 88.3308 3.91313 88.2633 4.45342ZM85.6969 3.9469H87.4934C87.4754 3.69026 87.3876 3.4719 87.23 3.2918C87.0724 3.1117 86.8675 3.02166 86.6154 3.02166C86.3543 3.02166 86.1381 3.10945 85.967 3.28505C85.796 3.46064 85.7059 3.68126 85.6969 3.9469ZM93.6188 5.58803C93.3036 5.92571 92.8736 6.09455 92.3288 6.09455C91.7841 6.09455 91.3541 5.92571 91.0389 5.58803C90.7237 5.24585 90.5662 4.80011 90.5662 4.25081C90.5662 3.71052 90.7237 3.26929 91.0389 2.9271C91.3541 2.58492 91.7841 2.41383 92.3288 2.41383C92.8736 2.41383 93.3036 2.58492 93.6188 2.9271C93.934 3.26929 94.0915 3.71052 94.0915 4.25081C94.0915 4.80011 93.934 5.24585 93.6188 5.58803ZM91.5859 5.12203C91.757 5.36516 92.0047 5.48673 92.3288 5.48673C92.653 5.48673 92.8984 5.36516 93.065 5.12203C93.2361 4.8789 93.3216 4.58849 93.3216 4.25081C93.3216 3.91763 93.2361 3.62948 93.065 3.38635C92.8984 3.14322 92.653 3.02166 92.3288 3.02166C92.0047 3.02166 91.757 3.14322 91.5859 3.38635C91.4194 3.62948 91.3361 3.91763 91.3361 4.25081C91.3361 4.58849 91.4194 4.8789 91.5859 5.12203ZM94.7316 6V2.50838H95.461V3.02166L95.4745 3.03516C95.5961 2.84156 95.7514 2.69073 95.9405 2.58267C96.1296 2.47011 96.3367 2.41383 96.5618 2.41383C96.949 2.41383 97.2507 2.51513 97.4668 2.71774C97.6874 2.92035 97.7977 3.21526 97.7977 3.60247V6H97.0278V3.80507C97.0188 3.53043 96.9603 3.33232 96.8522 3.21076C96.7442 3.08469 96.5753 3.02166 96.3457 3.02166C96.0936 3.02166 95.8887 3.10945 95.7311 3.28505C95.5781 3.46064 95.5015 3.67901 95.5015 3.94015V6H94.7316ZM98.6299 6V1.17792H99.3998V6H98.6299ZM101.177 5.98649L99.8537 2.50838H100.698L101.61 5.11528H101.623L102.508 2.50838H103.312L101.954 6.1891C101.797 6.58531 101.675 6.8442 101.589 6.96577C101.391 7.24492 101.101 7.38449 100.718 7.38449C100.538 7.38449 100.36 7.37098 100.185 7.34397V6.69562C100.383 6.72714 100.504 6.7429 100.549 6.7429C100.711 6.7429 100.829 6.70238 100.901 6.62133C100.977 6.54479 101.04 6.42323 101.09 6.25664L101.177 5.98649ZM108.958 2.59681C108.958 3.08926 108.79 3.46739 108.454 3.73121C108.117 3.99282 107.643 4.12363 107.032 4.12363H106.478V6H105.872V1.17881H107.148C108.355 1.17881 108.958 1.65148 108.958 2.59681ZM106.478 3.6026H106.963C107.442 3.6026 107.79 3.52565 108.005 3.37176C108.221 3.21567 108.328 2.96615 108.328 2.62319C108.328 2.31321 108.228 2.08128 108.028 1.92738C107.828 1.77349 107.516 1.69655 107.092 1.69655H106.478V3.6026ZM114.577 4.18299C114.577 4.77657 114.434 5.23934 114.149 5.5713C113.865 5.90107 113.475 6.06595 112.978 6.06595C112.508 6.06595 112.133 5.91976 111.853 5.62736C111.576 5.33277 111.423 4.91947 111.392 4.38744H110.472V6H109.878V2.37916H110.472V3.8862H111.398C111.447 3.38275 111.609 2.99473 111.886 2.72212C112.163 2.44951 112.532 2.31321 112.991 2.31321C113.479 2.31321 113.865 2.48139 114.149 2.81775C114.434 3.15412 114.577 3.60919 114.577 4.18299ZM111.999 4.18299C111.999 4.64026 112.077 4.98652 112.233 5.22175C112.389 5.45698 112.639 5.5746 112.985 5.5746C113.33 5.5746 113.579 5.45698 113.733 5.22175C113.887 4.98652 113.964 4.64026 113.964 4.18299C113.964 3.73231 113.886 3.39155 113.73 3.16071C113.574 2.92768 113.325 2.81116 112.985 2.81116C112.639 2.81116 112.389 2.92768 112.233 3.16071C112.077 3.39155 111.999 3.73231 111.999 4.18299ZM117.99 2.88041H116.807V6H116.22V2.88041H115.052V2.37916H117.99V2.88041ZM120.945 6L120.83 5.48556H120.803C120.623 5.712 120.443 5.86589 120.263 5.94724C120.084 6.02638 119.859 6.06595 119.586 6.06595C119.23 6.06595 118.951 5.97252 118.749 5.78565C118.547 5.59878 118.446 5.33497 118.446 4.99421C118.446 4.25993 119.025 3.87521 120.183 3.84003L120.797 3.81695V3.6026C120.797 3.32779 120.737 3.12554 120.619 2.99583C120.5 2.86392 120.31 2.79797 120.048 2.79797C119.857 2.79797 119.676 2.82655 119.504 2.88371C119.335 2.94087 119.175 3.00462 119.026 3.07497L118.845 2.62979C119.027 2.53306 119.226 2.45721 119.441 2.40225C119.657 2.34729 119.87 2.31981 120.081 2.31981C120.519 2.31981 120.844 2.41654 121.057 2.61C121.271 2.80346 121.377 3.11125 121.377 3.53335V6H120.945ZM119.722 5.58779C120.054 5.58779 120.314 5.49876 120.503 5.32068C120.695 5.14041 120.79 4.88539 120.79 4.55562V4.22915L120.256 4.25224C119.84 4.26763 119.537 4.33358 119.346 4.4501C119.157 4.56662 119.062 4.75019 119.062 5.00081C119.062 5.18987 119.119 5.33497 119.234 5.4361C119.35 5.53723 119.513 5.58779 119.722 5.58779Z" fill="#FF0000"/>
<path d="M159.277 3.42687V5.22333C159.277 5.31788 159.29 5.38542 159.317 5.42594C159.344 5.46646 159.392 5.48673 159.459 5.48673C159.536 5.48673 159.599 5.48222 159.648 5.47322V6.00675C159.482 6.06528 159.32 6.09455 159.162 6.09455C158.82 6.09455 158.622 5.95272 158.568 5.66907C158.424 5.80865 158.241 5.91445 158.021 5.98649C157.8 6.05853 157.579 6.09455 157.359 6.09455C157.017 6.09455 156.731 6.00675 156.501 5.83116C156.276 5.65106 156.163 5.39893 156.163 5.07475C156.163 4.90817 156.188 4.76409 156.238 4.64252C156.292 4.51646 156.357 4.4174 156.434 4.34536C156.51 4.27333 156.611 4.21254 156.737 4.16302C156.864 4.10899 156.978 4.07072 157.082 4.0482C157.19 4.02569 157.321 4.00543 157.474 3.98742L157.899 3.93339C158.147 3.90188 158.318 3.85685 158.412 3.79832C158.507 3.73979 158.554 3.63849 158.554 3.49441C158.554 3.17924 158.313 3.02166 157.832 3.02166C157.606 3.02166 157.426 3.06893 157.291 3.16348C157.156 3.25353 157.08 3.39085 157.062 3.57545H156.292C156.319 3.16123 156.479 2.86407 156.771 2.68397C157.068 2.50388 157.438 2.41383 157.879 2.41383C158.262 2.41383 158.59 2.49712 158.865 2.66371C159.139 2.8303 159.277 3.08469 159.277 3.42687ZM158.507 4.82487V4.25081C158.385 4.32285 158.187 4.37688 157.913 4.4129L157.602 4.45342C157.156 4.51195 156.933 4.69655 156.933 5.00722C156.933 5.16931 156.996 5.29087 157.122 5.37191C157.253 5.44845 157.411 5.48673 157.595 5.48673C157.834 5.48673 158.045 5.4327 158.23 5.32464C158.415 5.21208 158.507 5.04549 158.507 4.82487ZM160.105 6V2.50838H160.835V3.02166L160.848 3.03516C160.97 2.84156 161.125 2.69073 161.314 2.58267C161.503 2.47011 161.71 2.41383 161.935 2.41383C162.323 2.41383 162.624 2.51513 162.84 2.71774C163.061 2.92035 163.171 3.21526 163.171 3.60247V6H162.401V3.80507C162.392 3.53043 162.334 3.33232 162.226 3.21076C162.118 3.08469 161.949 3.02166 161.719 3.02166C161.467 3.02166 161.262 3.10945 161.105 3.28505C160.952 3.46064 160.875 3.67901 160.875 3.94015V6H160.105ZM168.787 3.42687V5.22333C168.787 5.31788 168.801 5.38542 168.828 5.42594C168.855 5.46646 168.902 5.48673 168.97 5.48673C169.046 5.48673 169.109 5.48222 169.159 5.47322V6.00675C168.992 6.06528 168.83 6.09455 168.672 6.09455C168.33 6.09455 168.132 5.95272 168.078 5.66907C167.934 5.80865 167.752 5.91445 167.531 5.98649C167.31 6.05853 167.09 6.09455 166.869 6.09455C166.527 6.09455 166.241 6.00675 166.012 5.83116C165.786 5.65106 165.674 5.39893 165.674 5.07475C165.674 4.90817 165.699 4.76409 165.748 4.64252C165.802 4.51646 165.867 4.4174 165.944 4.34536C166.021 4.27333 166.122 4.21254 166.248 4.16302C166.374 4.10899 166.489 4.07072 166.592 4.0482C166.7 4.02569 166.831 4.00543 166.984 3.98742L167.41 3.93339C167.657 3.90188 167.828 3.85685 167.923 3.79832C168.017 3.73979 168.065 3.63849 168.065 3.49441C168.065 3.17924 167.824 3.02166 167.342 3.02166C167.117 3.02166 166.937 3.06893 166.802 3.16348C166.667 3.25353 166.59 3.39085 166.572 3.57545H165.802C165.829 3.16123 165.989 2.86407 166.282 2.68397C166.579 2.50388 166.948 2.41383 167.389 2.41383C167.772 2.41383 168.101 2.49712 168.375 2.66371C168.65 2.8303 168.787 3.08469 168.787 3.42687ZM168.017 4.82487V4.25081C167.896 4.32285 167.698 4.37688 167.423 4.4129L167.112 4.45342C166.667 4.51195 166.444 4.69655 166.444 5.00722C166.444 5.16931 166.507 5.29087 166.633 5.37191C166.763 5.44845 166.921 5.48673 167.106 5.48673C167.344 5.48673 167.556 5.4327 167.74 5.32464C167.925 5.21208 168.017 5.04549 168.017 4.82487ZM172.905 1.17792V6H172.175V5.52725H172.162C171.968 5.90545 171.608 6.09455 171.081 6.09455C170.55 6.09455 170.145 5.92121 169.866 5.57452C169.586 5.22784 169.447 4.77985 169.447 4.23055C169.447 3.63623 169.593 3.18599 169.886 2.87983C170.183 2.56916 170.541 2.41383 170.96 2.41383C171.194 2.41383 171.417 2.4611 171.628 2.55566C171.844 2.6457 172.009 2.78078 172.121 2.96087H172.135V1.17792H172.905ZM170.217 4.29133C170.217 4.62001 170.298 4.90141 170.46 5.13554C170.626 5.36966 170.867 5.48673 171.183 5.48673C171.502 5.48673 171.745 5.36516 171.912 5.12203C172.079 4.8789 172.162 4.58849 172.162 4.25081C172.162 3.86361 172.074 3.56194 171.898 3.34583C171.727 3.12971 171.493 3.02166 171.196 3.02166C170.863 3.02166 170.615 3.14547 170.453 3.3931C170.296 3.64074 170.217 3.94015 170.217 4.29133ZM173.765 1.90731V1.17792H174.535V1.90731H173.765ZM173.765 6V2.50838H174.535V6H173.765ZM175.022 3.08244V2.50838H175.603V1.46157H176.373V2.50838H177.069V3.08244H176.373V4.94644C176.373 5.12653 176.393 5.2526 176.434 5.32464C176.479 5.39217 176.582 5.42594 176.744 5.42594C176.888 5.42594 176.997 5.41694 177.069 5.39893V5.99325C176.843 6.02026 176.677 6.03377 176.569 6.03377C176.191 6.03377 175.936 5.96623 175.806 5.83116C175.68 5.69158 175.612 5.46196 175.603 5.14229V3.08244H175.022ZM177.622 6V1.17792H178.392V2.96763H178.406C178.505 2.80554 178.647 2.67272 178.831 2.56916C179.02 2.46561 179.228 2.41383 179.453 2.41383C179.84 2.41383 180.142 2.51513 180.358 2.71774C180.578 2.92035 180.689 3.21526 180.689 3.60247V6H179.919V3.80507C179.91 3.53043 179.851 3.33232 179.743 3.21076C179.635 3.08469 179.466 3.02166 179.237 3.02166C178.984 3.02166 178.78 3.10945 178.622 3.28505C178.469 3.46064 178.392 3.67901 178.392 3.94015V6H177.622ZM182.439 5.98649L181.116 2.50838H181.96L182.871 5.11528H182.885L183.77 2.50838H184.573L183.216 6.1891C183.058 6.58531 182.937 6.8442 182.851 6.96577C182.653 7.24492 182.363 7.38449 181.98 7.38449C181.8 7.38449 181.622 7.37098 181.446 7.34397V6.69562C181.645 6.72714 181.766 6.7429 181.811 6.7429C181.973 6.7429 182.09 6.70238 182.162 6.62133C182.239 6.54479 182.302 6.42323 182.351 6.25664L182.439 5.98649ZM187.927 3.42687V5.22333C187.927 5.31788 187.94 5.38542 187.967 5.42594C187.994 5.46646 188.042 5.48673 188.109 5.48673C188.186 5.48673 188.249 5.48222 188.298 5.47322V6.00675C188.132 6.06528 187.97 6.09455 187.812 6.09455C187.47 6.09455 187.272 5.95272 187.218 5.66907C187.074 5.80865 186.891 5.91445 186.671 5.98649C186.45 6.05853 186.229 6.09455 186.009 6.09455C185.667 6.09455 185.381 6.00675 185.151 5.83116C184.926 5.65106 184.813 5.39893 184.813 5.07475C184.813 4.90817 184.838 4.76409 184.888 4.64252C184.942 4.51646 185.007 4.4174 185.084 4.34536C185.16 4.27333 185.261 4.21254 185.388 4.16302C185.514 4.10899 185.628 4.07072 185.732 4.0482C185.84 4.02569 185.971 4.00543 186.124 3.98742L186.549 3.93339C186.797 3.90188 186.968 3.85685 187.062 3.79832C187.157 3.73979 187.204 3.63849 187.204 3.49441C187.204 3.17924 186.963 3.02166 186.482 3.02166C186.257 3.02166 186.076 3.06893 185.941 3.16348C185.806 3.25353 185.73 3.39085 185.712 3.57545H184.942C184.969 3.16123 185.129 2.86407 185.421 2.68397C185.718 2.50388 186.088 2.41383 186.529 2.41383C186.912 2.41383 187.24 2.49712 187.515 2.66371C187.79 2.8303 187.927 3.08469 187.927 3.42687ZM187.157 4.82487V4.25081C187.035 4.32285 186.837 4.37688 186.563 4.4129L186.252 4.45342C185.806 4.51195 185.583 4.69655 185.583 5.00722C185.583 5.16931 185.646 5.29087 185.773 5.37191C185.903 5.44845 186.061 5.48673 186.245 5.48673C186.484 5.48673 186.695 5.4327 186.88 5.32464C187.065 5.21208 187.157 5.04549 187.157 4.82487ZM188.816 6V5.08826H189.755V6H188.816ZM190.513 3.11621V2.50838H193.35V3.04867L191.351 5.39217H193.451V6H190.378V5.45971L192.31 3.11621H190.513ZM194.032 1.90731V1.17792H194.802V1.90731H194.032ZM194.032 6V2.50838H194.802V6H194.032ZM195.661 7.28994V2.50838H196.391V2.98113H196.404C196.607 2.60293 196.967 2.41383 197.485 2.41383C198.011 2.41383 198.414 2.58942 198.693 2.94061C198.977 3.2873 199.119 3.73078 199.119 4.27107C199.119 4.77985 198.988 5.21208 198.727 5.56777C198.471 5.91896 198.099 6.09455 197.613 6.09455C197.37 6.09455 197.142 6.04953 196.931 5.95948C196.719 5.86493 196.557 5.7276 196.445 5.54751H196.431V7.28994H195.661ZM198.349 4.25757C198.349 3.91989 198.264 3.62948 198.092 3.38635C197.921 3.14322 197.685 3.02166 197.383 3.02166C197.064 3.02166 196.82 3.13196 196.654 3.35258C196.487 3.5732 196.404 3.87486 196.404 4.25757C196.404 4.61776 196.492 4.91267 196.667 5.14229C196.843 5.37191 197.082 5.48673 197.383 5.48673C197.707 5.48673 197.948 5.36741 198.106 5.12878C198.268 4.89016 198.349 4.59975 198.349 4.25757ZM201.669 7.28994V2.50838H202.399V2.98113H202.412C202.615 2.60293 202.975 2.41383 203.493 2.41383C204.02 2.41383 204.423 2.58942 204.702 2.94061C204.985 3.2873 205.127 3.73078 205.127 4.27107C205.127 4.77985 204.997 5.21208 204.736 5.56777C204.479 5.91896 204.108 6.09455 203.621 6.09455C203.378 6.09455 203.151 6.04953 202.939 5.95948C202.728 5.86493 202.565 5.7276 202.453 5.54751H202.439V7.28994H201.669ZM204.357 4.25757C204.357 3.91989 204.272 3.62948 204.101 3.38635C203.93 3.14322 203.693 3.02166 203.392 3.02166C203.072 3.02166 202.829 3.13196 202.662 3.35258C202.496 3.5732 202.412 3.87486 202.412 4.25757C202.412 4.61776 202.5 4.91267 202.676 5.14229C202.851 5.37191 203.09 5.48673 203.392 5.48673C203.716 5.48673 203.957 5.36741 204.114 5.12878C204.276 4.89016 204.357 4.59975 204.357 4.25757ZM205.778 6V2.50838H206.501V3.18374H206.514C206.559 2.99014 206.683 2.81454 206.885 2.65696C207.093 2.49487 207.309 2.41383 207.534 2.41383C207.579 2.41383 207.676 2.42058 207.824 2.43409V3.17699C207.703 3.15448 207.592 3.14322 207.493 3.14322C207.223 3.14322 206.998 3.24903 206.818 3.46064C206.638 3.67225 206.548 3.96491 206.548 4.33861V6H205.778ZM210.924 5.58803C210.609 5.92571 210.179 6.09455 209.634 6.09455C209.089 6.09455 208.659 5.92571 208.344 5.58803C208.029 5.24585 207.871 4.80011 207.871 4.25081C207.871 3.71052 208.029 3.26929 208.344 2.9271C208.659 2.58492 209.089 2.41383 209.634 2.41383C210.179 2.41383 210.609 2.58492 210.924 2.9271C211.239 3.26929 211.397 3.71052 211.397 4.25081C211.397 4.80011 211.239 5.24585 210.924 5.58803ZM208.891 5.12203C209.062 5.36516 209.31 5.48673 209.634 5.48673C209.958 5.48673 210.204 5.36516 210.37 5.12203C210.541 4.8789 210.627 4.58849 210.627 4.25081C210.627 3.91763 210.541 3.62948 210.37 3.38635C210.204 3.14322 209.958 3.02166 209.634 3.02166C209.31 3.02166 209.062 3.14322 208.891 3.38635C208.725 3.62948 208.641 3.91763 208.641 4.25081C208.641 4.58849 208.725 4.8789 208.891 5.12203ZM215.326 1.17792V6H214.596V5.52725H214.583C214.389 5.90545 214.029 6.09455 213.502 6.09455C212.971 6.09455 212.566 5.92121 212.287 5.57452C212.008 5.22784 211.868 4.77985 211.868 4.23055C211.868 3.63623 212.014 3.18599 212.307 2.87983C212.604 2.56916 212.962 2.41383 213.381 2.41383C213.615 2.41383 213.838 2.4611 214.049 2.55566C214.266 2.6457 214.43 2.78078 214.542 2.96087H214.556V1.17792H215.326ZM212.638 4.29133C212.638 4.62001 212.719 4.90141 212.881 5.13554C213.048 5.36966 213.289 5.48673 213.604 5.48673C213.923 5.48673 214.166 5.36516 214.333 5.12203C214.5 4.8789 214.583 4.58849 214.583 4.25081C214.583 3.86361 214.495 3.56194 214.32 3.34583C214.148 3.12971 213.914 3.02166 213.617 3.02166C213.284 3.02166 213.036 3.14547 212.874 3.3931C212.717 3.64074 212.638 3.94015 212.638 4.29133ZM219.232 2.50838V6H218.475V5.51374H218.462C218.367 5.68483 218.225 5.82441 218.036 5.93246C217.852 6.04052 217.663 6.09455 217.469 6.09455C217.014 6.09455 216.683 5.98199 216.476 5.75687C216.269 5.53175 216.166 5.18731 216.166 4.72357V2.50838H216.935V4.64928C216.935 4.94644 216.992 5.1603 217.104 5.29087C217.217 5.42144 217.383 5.48673 217.604 5.48673C218.176 5.48673 218.462 5.16931 218.462 4.53447V2.50838H219.232ZM223.17 3.67676H222.401C222.369 3.46514 222.284 3.30306 222.144 3.1905C222.004 3.07794 221.824 3.02166 221.604 3.02166C221.491 3.02166 221.383 3.03966 221.279 3.07568C221.18 3.1117 221.079 3.17249 220.976 3.25803C220.877 3.34358 220.795 3.4764 220.732 3.6565C220.674 3.83209 220.645 4.0437 220.645 4.29133C220.645 4.62001 220.721 4.90141 220.874 5.13554C221.027 5.36966 221.259 5.48673 221.57 5.48673C221.795 5.48673 221.98 5.41694 222.124 5.27736C222.272 5.13779 222.365 4.94193 222.401 4.6898H223.17C223.098 5.14454 222.925 5.49348 222.65 5.73661C222.38 5.97524 222.02 6.09455 221.57 6.09455C221.039 6.09455 220.622 5.92796 220.32 5.59478C220.023 5.2571 219.875 4.82262 219.875 4.29133C219.875 3.73754 220.023 3.2873 220.32 2.94061C220.618 2.58942 221.043 2.41383 221.597 2.41383C222.025 2.41383 222.385 2.52189 222.677 2.738C222.97 2.95412 223.134 3.26704 223.17 3.67676ZM223.445 3.08244V2.50838H224.026V1.46157H224.796V2.50838H225.491V3.08244H224.796V4.94644C224.796 5.12653 224.816 5.2526 224.857 5.32464C224.902 5.39217 225.005 5.42594 225.167 5.42594C225.311 5.42594 225.419 5.41694 225.491 5.39893V5.99325C225.266 6.02026 225.1 6.03377 224.992 6.03377C224.613 6.03377 224.359 5.96623 224.229 5.83116C224.102 5.69158 224.035 5.46196 224.026 5.14229V3.08244H223.445ZM226.066 1.90731V1.17792H226.835V1.90731H226.066ZM226.066 6V2.50838H226.835V6H226.066ZM230.565 5.58803C230.25 5.92571 229.82 6.09455 229.275 6.09455C228.73 6.09455 228.3 5.92571 227.985 5.58803C227.67 5.24585 227.512 4.80011 227.512 4.25081C227.512 3.71052 227.67 3.26929 227.985 2.9271C228.3 2.58492 228.73 2.41383 229.275 2.41383C229.82 2.41383 230.25 2.58492 230.565 2.9271C230.88 3.26929 231.038 3.71052 231.038 4.25081C231.038 4.80011 230.88 5.24585 230.565 5.58803ZM228.532 5.12203C228.703 5.36516 228.951 5.48673 229.275 5.48673C229.599 5.48673 229.845 5.36516 230.011 5.12203C230.182 4.8789 230.268 4.58849 230.268 4.25081C230.268 3.91763 230.182 3.62948 230.011 3.38635C229.845 3.14322 229.599 3.02166 229.275 3.02166C228.951 3.02166 228.703 3.14322 228.532 3.38635C228.365 3.62948 228.282 3.91763 228.282 4.25081C228.282 4.58849 228.365 4.8789 228.532 5.12203ZM231.678 6V2.50838H232.407V3.02166L232.421 3.03516C232.542 2.84156 232.698 2.69073 232.887 2.58267C233.076 2.47011 233.283 2.41383 233.508 2.41383C233.895 2.41383 234.197 2.51513 234.413 2.71774C234.634 2.92035 234.744 3.21526 234.744 3.60247V6H233.974V3.80507C233.965 3.53043 233.906 3.33232 233.798 3.21076C233.69 3.08469 233.521 3.02166 233.292 3.02166C233.04 3.02166 232.835 3.10945 232.677 3.28505C232.524 3.46064 232.448 3.67901 232.448 3.94015V6H231.678Z" fill="#FF0000"/>
<path d="M155.947 6.67536H235.149V7.01304H155.947V6.67536Z" fill="#FF0000"/>
</svg>
