<svg width="136" height="40" viewBox="0 0 136 40" fill="none" xmlns="http://www.w3.org/2000/svg">
<g clip-path="url(#clip0_54_64)">
<path d="M9.0939 0.201172H14.0651V37.9982H9.2373V33.9106C8.5203 36.7773 7.3014 38.6353 5.43719 38.6353C2.16288 38.6353 0.155273 32.9551 0.155273 24.3021C0.155273 15.6491 2.16288 9.96895 5.43719 9.96895C7.18189 9.96895 8.353 11.6146 9.0939 14.1627V0.201172ZM7.22969 30.1415C8.592 30.1415 9.309 28.1774 9.309 24.3552C9.309 20.533 8.592 18.5158 7.22969 18.5158C5.86739 18.5158 5.12649 20.533 5.12649 24.3552C5.12649 28.1774 5.86739 30.1415 7.22969 30.1415ZM22.3289 38.6353C18.1464 38.6353 15.3262 33.0082 15.3262 24.3552C15.3262 15.7553 18.1464 10.022 22.3289 10.022C26.5115 10.022 29.3317 15.7553 29.3317 24.3552C29.3317 33.0082 26.5115 38.6353 22.3289 38.6353ZM22.3289 30.1415C23.4522 30.1415 24.3604 28.7082 24.3604 24.4083C24.3604 20.1083 23.4522 18.5158 22.3289 18.5158C21.1578 18.5158 20.2974 20.1083 20.2974 24.4083C20.2974 28.6551 21.1578 30.1415 22.3289 30.1415ZM45.8366 10.606H51.1424L47.0794 37.9982H42.156L40.961 28.549C40.6742 26.3724 40.4113 24.1959 40.1962 22.0194C39.9572 24.1959 39.6943 26.3724 39.4075 28.549L38.2125 37.9982H33.2891L29.2261 10.606H34.5319L35.3206 18.0911C35.6074 20.7454 35.8703 23.4527 36.1332 26.107C36.42 23.4527 36.7546 20.7454 37.1131 18.038L38.093 10.606H42.2755L43.2554 18.038C43.6139 20.7454 43.9485 23.4527 44.2353 26.107C44.4982 23.4527 44.7611 20.7454 45.0479 18.0911L45.8366 10.606ZM60.6119 9.96895C63.1453 9.96895 64.8183 13.101 64.8183 21.0108V37.9982H59.8471V22.8157C59.8471 20.6392 59.4169 19.2059 58.437 19.2059C57.6244 19.2059 56.8118 20.2145 56.8118 22.8688V37.9982H51.8406V10.606H56.7162V14.5874H56.7879C57.6244 11.243 58.9867 9.96895 60.6119 9.96895ZM66.5446 37.9982V0.201172H71.5159V37.9982H66.5446ZM79.7918 38.6353C75.6093 38.6353 72.7891 33.0082 72.7891 24.3552C72.7891 15.7553 75.6093 10.022 79.7918 10.022C83.9743 10.022 86.7945 15.7553 86.7945 24.3552C86.7945 33.0082 83.9743 38.6353 79.7918 38.6353ZM79.7918 30.1415C80.9151 30.1415 81.8233 28.7082 81.8233 24.4083C81.8233 20.1083 80.9151 18.5158 79.7918 18.5158C78.6207 18.5158 77.7603 20.1083 77.7603 24.4083C77.7603 28.6551 78.6207 30.1415 79.7918 30.1415ZM101.424 37.9982H96.429C96.2378 37.1489 96.0944 35.981 96.0705 34.8131C95.4013 37.3612 94.0629 38.9007 92.1031 38.9007C89.498 38.9007 87.5621 36.2464 87.5621 30.46C87.5621 25.6823 88.8766 22.7095 92.2704 21.9663L94.517 21.4886C95.5208 21.2762 95.9988 20.8515 95.9988 19.4182C95.9988 17.9849 95.5208 17.401 94.6126 17.401C93.6566 17.401 93.2025 18.038 93.1308 20.1083H88.1596C88.2791 13.4195 90.1194 9.96895 94.6843 9.96895C99.1297 9.96895 100.97 13.1541 100.97 18.7281V33.6452C100.97 35.1847 101.113 36.5649 101.424 37.9982ZM94.0629 31.9995C95.3296 31.9995 95.9988 30.5131 95.9988 27.5403V25.7354C95.8076 26.3724 95.473 26.691 94.9233 26.8502L93.7761 27.1687C92.9874 27.3811 92.605 28.1243 92.605 29.5576C92.605 31.2032 93.1069 31.9995 94.0629 31.9995ZM111.089 0.201172H116.061V37.9982H111.233V33.9106C110.516 36.7773 109.297 38.6353 107.433 38.6353C104.158 38.6353 102.151 32.9551 102.151 24.3021C102.151 15.6491 104.158 9.96895 107.433 9.96895C109.177 9.96895 110.348 11.6146 111.089 14.1627V0.201172ZM109.225 30.1415C110.587 30.1415 111.304 28.1774 111.304 24.3552C111.304 20.533 110.587 18.5158 109.225 18.5158C107.863 18.5158 107.122 20.533 107.122 24.3552C107.122 28.1774 107.863 30.1415 109.225 30.1415Z" fill="black"/>
</g>
<g clip-path="url(#clip1_54_64)">
<path d="M135.252 1.42188H122.904V37.6688H135.252V1.42188Z" stroke="black" stroke-width="2"/>
<path d="M135.138 1.46582L123.164 37.7128" stroke="black" stroke-width="2"/>
<path d="M134.992 37.7128L123.019 1.46582" stroke="black" stroke-width="2"/>
</g>
<defs>
<clipPath id="clip0_54_64">
<rect width="116.23" height="39.1158" fill="white"/>
</clipPath>
<clipPath id="clip1_54_64">
<rect width="13.8443" height="39.0898" fill="white" transform="translate(122.156)"/>
</clipPath>
</defs>
</svg>
