<svg width="136" height="40" viewBox="0 0 136 40" fill="none" xmlns="http://www.w3.org/2000/svg">
<g clip-path="url(#clip0_54_63)">
<path d="M17.9003 10.3788C20.4933 10.3788 22.4315 13.4667 22.4315 20.2183V38.0133H16.9835V23.0446C16.9835 20.8987 16.5645 19.4856 15.5954 19.4856C14.8096 19.4856 13.9976 20.48 13.9976 23.0969V38.0133H8.54963V23.0446C8.54963 20.8987 8.13056 19.4856 7.16144 19.4856C6.37568 19.4856 5.56372 20.48 5.56372 23.0969V38.0133H0.115723V11.0068H5.45895V15.6126H5.51133C6.42806 11.6349 7.97341 10.3788 9.64971 10.3788C11.3522 10.3788 12.8452 11.6872 13.5524 14.9322H13.6571C14.7048 12.0013 15.9882 10.3788 17.9003 10.3788ZM31.4897 38.6413C26.9059 38.6413 23.8152 33.0935 23.8152 24.5624C23.8152 16.0836 26.9059 10.4311 31.4897 10.4311C36.0733 10.4311 39.164 16.0836 39.164 24.5624C39.164 33.0935 36.0733 38.6413 31.4897 38.6413ZM31.4897 30.2672C32.7207 30.2672 33.716 28.8541 33.716 24.6147C33.716 20.3753 32.7207 18.8052 31.4897 18.8052C30.2062 18.8052 29.2633 20.3753 29.2633 24.6147C29.2633 28.8018 30.2062 30.2672 31.4897 30.2672ZM49.5392 10.5881C49.9059 10.5881 50.2202 10.6405 50.5083 10.7451V20.5324H49.251C47.1295 20.5324 46.0032 22.6259 46.0032 27.6503V38.0133H40.5552V11.0068H45.8984V16.3453C46.3699 12.5246 47.5747 10.5881 49.5392 10.5881ZM66.1423 24.196C66.1423 24.9288 66.1161 25.9232 66.0375 27.2316H56.1892C56.2678 29.6915 57.0798 31.3663 58.7823 31.3663C59.699 31.3663 60.3538 30.8953 60.7205 29.9009H65.8018C64.9898 35.5534 62.2659 38.6413 58.6775 38.6413C53.9629 38.6413 51.0817 33.3552 51.0817 24.6147C51.0817 16.0836 53.9629 10.3788 58.6513 10.3788C63.0778 10.3788 66.1423 15.4556 66.1423 24.196ZM58.5727 17.6014C57.2107 17.6014 56.4774 18.8575 56.2678 21.5791H60.9039C60.7729 18.9099 59.9871 17.6014 58.5727 17.6014ZM67.5404 8.80863V0.643897H72.9884V8.80863H67.5404ZM67.5404 38.0133V11.0068H72.9884V38.0133H67.5404ZM84.494 10.3788C87.2704 10.3788 89.1038 13.4667 89.1038 21.2651V38.0133H83.6558V23.0446C83.6558 20.8987 83.1844 19.4856 82.1105 19.4856C81.22 19.4856 80.3294 20.48 80.3294 23.0969V38.0133H74.8814V11.0068H80.2246V14.9322H80.3032C81.22 11.6349 82.7129 10.3788 84.494 10.3788ZM99.2493 8.23292C98.0445 8.23292 97.7826 8.80863 97.7826 11.0068H100.638V18.4912H97.7826V38.0133H92.3346V18.4912H90.1868V11.0068H92.3346V9.69838C92.3346 2.26638 94.3514 0.172852 97.9921 0.172852C98.8041 0.172852 99.747 0.27753 100.638 0.434542V8.38993C100.087 8.28525 99.616 8.23292 99.2493 8.23292ZM108.762 38.6413C104.178 38.6413 101.087 33.0935 101.087 24.5624C101.087 16.0836 104.178 10.4311 108.762 10.4311C113.345 10.4311 116.436 16.0836 116.436 24.5624C116.436 33.0935 113.345 38.6413 108.762 38.6413ZM108.762 30.2672C109.993 30.2672 110.988 28.8541 110.988 24.6147C110.988 20.3753 109.993 18.8052 108.762 18.8052C107.478 18.8052 106.535 20.3753 106.535 24.6147C106.535 28.8018 107.478 30.2672 108.762 30.2672Z" fill="black"/>
</g>
<g clip-path="url(#clip1_54_63)">
<path d="M127.896 29.8693V18.4451H129.444V29.8693H127.896ZM128.687 17.1874C128.439 17.1874 128.235 17.0592 128.074 16.8031C127.913 16.5469 127.832 16.1393 127.832 15.5803C127.832 14.9514 127.913 14.5322 128.074 14.3226C128.235 14.0896 128.439 13.9732 128.687 13.9732C128.902 13.9732 129.09 14.0896 129.251 14.3226C129.423 14.5322 129.509 14.9514 129.509 15.5803C129.509 16.1626 129.423 16.5818 129.251 16.838C129.09 17.0709 128.902 17.1874 128.687 17.1874ZM128.67 38.5685C127.703 38.5685 126.795 38.1726 125.945 37.3807C125.107 36.6121 124.365 35.5406 123.72 34.1665C123.086 32.769 122.586 31.162 122.221 29.3453C121.866 27.5052 121.688 25.5372 121.688 23.441C121.688 21.3448 121.866 19.3884 122.221 17.5717C122.586 15.7317 123.086 14.1246 123.72 12.7504C124.365 11.353 125.107 10.2699 125.945 9.50132C126.795 8.70942 127.703 8.31348 128.67 8.31348C129.638 8.31348 130.541 8.70942 131.379 9.50132C132.229 10.2699 132.97 11.353 133.605 12.7504C134.25 14.1246 134.749 15.7317 135.104 17.5717C135.47 19.3884 135.652 21.3448 135.652 23.441C135.652 25.5372 135.47 27.5052 135.104 29.3453C134.749 31.162 134.25 32.769 133.605 34.1665C132.97 35.5406 132.229 36.6121 131.379 37.3807C130.541 38.1726 129.638 38.5685 128.67 38.5685ZM128.67 35.4592C129.444 35.4592 130.165 35.1563 130.831 34.5508C131.498 33.922 132.083 33.0601 132.589 31.9655C133.105 30.8475 133.502 29.5665 133.782 28.1225C134.072 26.6552 134.217 25.0946 134.217 23.441C134.217 21.764 134.072 20.2035 133.782 18.7595C133.502 17.3155 133.105 16.0461 132.589 14.9514C132.083 13.8334 131.492 12.9717 130.815 12.3661C130.149 11.7373 129.434 11.4228 128.67 11.4228C127.896 11.4228 127.176 11.7373 126.51 12.3661C125.843 12.9717 125.252 13.8334 124.736 14.9514C124.231 16.0461 123.833 17.3271 123.543 18.7944C123.263 20.2385 123.124 21.7873 123.124 23.441C123.124 25.1179 123.263 26.6785 123.543 28.1225C123.833 29.5665 124.231 30.8475 124.736 31.9655C125.252 33.0601 125.843 33.922 126.51 34.5508C127.187 35.1563 127.907 35.4592 128.67 35.4592Z" fill="black"/>
</g>
<defs>
<clipPath id="clip0_54_63">
<rect width="116.625" height="39.1158" fill="white"/>
</clipPath>
<clipPath id="clip1_54_63">
<rect width="14.6587" height="31.7605" fill="white" transform="translate(121.341 7.3291)"/>
</clipPath>
</defs>
</svg>
