<svg width="38" height="1016" viewBox="0 0 38 1016" fill="none" xmlns="http://www.w3.org/2000/svg">
<path d="M37.966 1008.01L36.622 1008.73L36.356 1008.73L34.998 1008.01L34.998 1007.67L35.978 1007.67L35.978 1006.14C35.978 1005.85 35.9547 1005.6 35.908 1005.4C35.8613 1005.21 35.782 1005.06 35.67 1004.97C35.5487 1004.87 35.3947 1004.81 35.208 1004.81C35.04 1004.81 34.8393 1004.86 34.606 1004.94C34.3633 1005.02 34.0973 1005.16 33.808 1005.35L31.61 1006.68L31.078 1005.78L33.36 1004.41C33.7613 1004.17 34.13 1003.99 34.466 1003.88C34.802 1003.76 35.1053 1003.71 35.376 1003.71C35.7493 1003.71 36.0573 1003.81 36.3 1004C36.5427 1004.19 36.72 1004.46 36.832 1004.83C36.944 1005.18 37 1005.61 37 1006.1L37 1007.67L37.966 1007.67L37.966 1008.01ZM37 1012.3C37 1013.2 36.8647 1013.9 36.594 1014.39C36.314 1014.88 35.8987 1015.13 35.348 1015.13C35.1053 1015.13 34.844 1015.09 34.564 1014.99C34.284 1014.89 33.9853 1014.74 33.668 1014.56L32.338 1013.76L31.82 1014.6L31.54 1014.4L31.61 1012.88L31.75 1012.65L33.052 1011.87L33.36 1012.04L32.87 1012.88L34.158 1013.66C34.3633 1013.78 34.55 1013.88 34.718 1013.94C34.8767 1014 35.0213 1014.03 35.152 1014.03C35.292 1014.03 35.418 1013.99 35.53 1013.91C35.6327 1013.83 35.7167 1013.71 35.782 1013.56C35.838 1013.42 35.8847 1013.24 35.922 1013.02C35.9593 1012.78 35.978 1012.52 35.978 1012.22L35.978 1009.64L37 1009.64L37 1012.3ZM31.288 1011.91L30.756 1012.81L28.446 1011.44C27.8487 1011.08 27.4053 1010.73 27.116 1010.37C26.8173 1010.02 26.668 1009.65 26.668 1009.28C26.668 1009.06 26.724 1008.84 26.836 1008.64C26.948 1008.42 27.116 1008.22 27.34 1008.02C27.564 1007.82 27.844 1007.64 28.18 1007.46L29.58 1006.72L29.118 1005.84L29.398 1005.68L30.7 1006.51L30.854 1006.75L30.826 1008.27L30.532 1008.44L30.07 1007.59L28.74 1008.31C28.432 1008.48 28.2033 1008.65 28.054 1008.8C27.8953 1008.96 27.816 1009.13 27.816 1009.29C27.816 1009.5 27.9233 1009.71 28.138 1009.92C28.3527 1010.14 28.6653 1010.37 29.076 1010.61L31.288 1011.91ZM37 996.179L29.762 998.811L29.762 997.075L35.32 995.241L35.32 995.213L29.762 993.449L29.762 991.797L37 994.387L37 996.179ZM37 988.528L30.084 988.528L30.084 990.936L28.824 990.936C28.824 990.198 28.6933 989.564 28.432 989.032C28.1707 988.5 27.76 988.182 27.2 988.08L27.2 986.778L37 986.778L37 988.528ZM37 982.932L35.11 982.932L35.11 980.986L37 980.986L37 982.932ZM36.734 974.402C37.042 974.869 37.196 975.438 37.196 976.11C37.196 976.782 37.042 977.351 36.734 977.818C36.4167 978.285 35.992 978.635 35.46 978.868C34.928 979.101 34.3913 979.265 33.85 979.358C33.3087 979.451 32.7253 979.498 32.1 979.498C31.4747 979.498 30.8913 979.451 30.35 979.358C29.8087 979.265 29.272 979.101 28.74 978.868C28.208 978.635 27.788 978.285 27.48 977.818C27.1627 977.351 27.004 976.782 27.004 976.11C27.004 975.438 27.1627 974.869 27.48 974.402C27.788 973.935 28.208 973.585 28.74 973.352C29.272 973.119 29.8087 972.955 30.35 972.862C30.8913 972.769 31.4747 972.722 32.1 972.722C32.7253 972.722 33.3087 972.769 33.85 972.862C34.3913 972.955 34.928 973.119 35.46 973.352C35.992 973.585 36.4167 973.935 36.734 974.402ZM32.1 977.902C34.6107 977.902 35.866 977.305 35.866 976.11C35.866 974.915 34.6107 974.318 32.1 974.318C29.5893 974.318 28.334 974.915 28.334 976.11C28.334 977.305 29.5893 977.902 32.1 977.902ZM37 971.257L35.11 971.257L35.11 969.311L37 969.311L37 971.257ZM36.734 962.726C37.042 963.193 37.196 963.762 37.196 964.434C37.196 965.106 37.042 965.676 36.734 966.142C36.4167 966.609 35.992 966.959 35.46 967.192C34.928 967.426 34.3913 967.589 33.85 967.682C33.3087 967.776 32.7253 967.822 32.1 967.822C31.4747 967.822 30.8913 967.776 30.35 967.682C29.8087 967.589 29.272 967.426 28.74 967.192C28.208 966.959 27.788 966.609 27.48 966.142C27.1627 965.676 27.004 965.106 27.004 964.434C27.004 963.762 27.1627 963.193 27.48 962.726C27.788 962.26 28.208 961.91 28.74 961.676C29.272 961.443 29.8087 961.28 30.35 961.186C30.8913 961.093 31.4747 961.046 32.1 961.046C32.7253 961.046 33.3087 961.093 33.85 961.186C34.3913 961.28 34.928 961.443 35.46 961.676C35.992 961.91 36.4167 962.26 36.734 962.726ZM32.1 966.226C34.6107 966.226 35.866 965.629 35.866 964.434C35.866 963.24 34.6107 962.642 32.1 962.642C29.5893 962.642 28.334 963.24 28.334 964.434C28.334 965.629 29.5893 966.226 32.1 966.226Z" fill="#FF0000"/>
<path d="M8.184 213.782L8.184 215.378C7.74533 215.443 7.40933 215.62 7.176 215.91C6.94267 216.199 6.826 216.572 6.826 217.03C6.826 217.263 6.86333 217.487 6.938 217.702C7.01267 217.907 7.13867 218.117 7.316 218.332C7.49333 218.537 7.76867 218.705 8.142 218.836C8.506 218.957 8.94467 219.018 9.458 219.018C10.1393 219.018 10.7227 218.859 11.208 218.542C11.6933 218.224 11.936 217.744 11.936 217.1C11.936 216.633 11.7913 216.25 11.502 215.952C11.2127 215.644 10.8067 215.452 10.284 215.378L10.284 213.782C11.2267 213.931 11.95 214.29 12.454 214.86C12.9487 215.42 13.196 216.166 13.196 217.1C13.196 218.201 12.8507 219.064 12.16 219.69C11.46 220.306 10.5593 220.614 9.458 220.614C8.31 220.614 7.37667 220.306 6.658 219.69C5.93 219.074 5.566 218.192 5.566 217.044C5.566 216.157 5.79 215.41 6.238 214.804C6.686 214.197 7.33467 213.856 8.184 213.782ZM13 212.484L5.762 212.484L5.762 210.986L7.162 210.986L7.162 210.958C6.76067 210.865 6.39667 210.608 6.07 210.188C5.734 209.759 5.566 209.311 5.566 208.844C5.566 208.751 5.58 208.55 5.608 208.242L7.148 208.242C7.10133 208.494 7.078 208.723 7.078 208.928C7.078 209.488 7.29733 209.955 7.736 210.328C8.17467 210.702 8.78133 210.888 9.556 210.888L13 210.888L13 212.484ZM9.794 201.242L9.794 206.562C10.4007 206.562 10.9093 206.399 11.32 206.072C11.7307 205.736 11.936 205.251 11.936 204.616C11.936 203.72 11.5347 203.132 10.732 202.852L10.732 201.34C11.5067 201.508 12.1133 201.896 12.552 202.502C12.9813 203.1 13.196 203.804 13.196 204.616C13.196 205.736 12.8507 206.609 12.16 207.234C11.46 207.85 10.536 208.158 9.388 208.158C8.324 208.158 7.42333 207.836 6.686 207.192C5.93933 206.548 5.566 205.704 5.566 204.658C5.566 203.548 5.99067 202.666 6.84 202.012C7.68933 201.359 8.674 201.102 9.794 201.242ZM8.744 206.562L8.744 202.838C8.212 202.876 7.75933 203.058 7.386 203.384C7.01267 203.711 6.826 204.136 6.826 204.658C6.826 205.2 7.008 205.648 7.372 206.002C7.736 206.357 8.19333 206.544 8.744 206.562ZM7.666 193.967L11.39 193.967C11.586 193.967 11.726 193.939 11.81 193.883C11.894 193.827 11.936 193.729 11.936 193.589C11.936 193.43 11.9267 193.3 11.908 193.197L13.014 193.197C13.1353 193.542 13.196 193.878 13.196 194.205C13.196 194.914 12.902 195.325 12.314 195.437C12.6033 195.736 12.8227 196.114 12.972 196.571C13.1213 197.028 13.196 197.486 13.196 197.943C13.196 198.652 13.014 199.245 12.65 199.721C12.2767 200.188 11.754 200.421 11.082 200.421C10.7367 200.421 10.438 200.37 10.186 200.267C9.92467 200.155 9.71933 200.02 9.57 199.861C9.42067 199.702 9.29467 199.492 9.192 199.231C9.08 198.97 9.00067 198.732 8.954 198.517C8.90733 198.293 8.86533 198.022 8.828 197.705L8.716 196.823C8.65067 196.31 8.55733 195.955 8.436 195.759C8.31467 195.563 8.10467 195.465 7.806 195.465C7.15267 195.465 6.826 195.964 6.826 196.963C6.826 197.43 6.924 197.803 7.12 198.083C7.30667 198.363 7.59133 198.522 7.974 198.559L7.974 200.155C7.11533 200.099 6.49933 199.768 6.126 199.161C5.75267 198.545 5.566 197.78 5.566 196.865C5.566 196.072 5.73867 195.39 6.084 194.821C6.42933 194.252 6.95667 193.967 7.666 193.967ZM10.564 195.563L9.374 195.563C9.52333 195.815 9.63533 196.226 9.71 196.795L9.794 197.439C9.91533 198.363 10.298 198.825 10.942 198.825C11.278 198.825 11.53 198.694 11.698 198.433C11.8567 198.162 11.936 197.836 11.936 197.453C11.936 196.958 11.824 196.52 11.6 196.137C11.3667 195.754 11.0213 195.563 10.564 195.563ZM6.952 192.978L5.762 192.978L5.762 191.774L3.592 191.774L3.592 190.178L5.762 190.178L5.762 188.736L6.952 188.736L6.952 190.178L10.816 190.178C11.1893 190.178 11.4507 190.136 11.6 190.052C11.74 189.959 11.81 189.744 11.81 189.408C11.81 189.109 11.7913 188.885 11.754 188.736L12.986 188.736C13.042 189.203 13.07 189.548 13.07 189.772C13.07 190.556 12.93 191.083 12.65 191.354C12.3607 191.615 11.8847 191.755 11.222 191.774L6.952 191.774L6.952 192.978ZM9.794 181.022L9.794 186.342C10.4007 186.342 10.9093 186.178 11.32 185.852C11.7307 185.516 11.936 185.03 11.936 184.396C11.936 183.5 11.5347 182.912 10.732 182.632L10.732 181.12C11.5067 181.288 12.1133 181.675 12.552 182.282C12.9813 182.879 13.196 183.584 13.196 184.396C13.196 185.516 12.8507 186.388 12.16 187.014C11.46 187.63 10.536 187.938 9.388 187.938C8.324 187.938 7.42333 187.616 6.686 186.972C5.93933 186.328 5.566 185.483 5.566 184.438C5.566 183.327 5.99066 182.445 6.84 181.792C7.68933 181.138 8.674 180.882 9.794 181.022ZM8.744 186.342L8.744 182.618C8.212 182.655 7.75933 182.837 7.386 183.164C7.01266 183.49 6.826 183.915 6.826 184.438C6.826 184.979 7.008 185.427 7.372 185.782C7.736 186.136 8.19333 186.323 8.744 186.342ZM3.004 172.99L13 172.99L13 174.502L12.02 174.502L12.02 174.53C12.804 174.932 13.196 175.678 13.196 176.77C13.196 177.872 12.8367 178.712 12.118 179.29C11.3993 179.869 10.4707 180.158 9.332 180.158C8.1 180.158 7.16666 179.855 6.532 179.248C5.888 178.632 5.566 177.89 5.566 177.022C5.566 176.537 5.664 176.075 5.86 175.636C6.04666 175.188 6.32666 174.848 6.7 174.614L6.7 174.586L3.004 174.586L3.004 172.99ZM9.458 178.562C10.1393 178.562 10.7227 178.394 11.208 178.058C11.6933 177.713 11.936 177.214 11.936 176.56C11.936 175.898 11.684 175.394 11.18 175.048C10.676 174.703 10.074 174.53 9.374 174.53C8.57133 174.53 7.946 174.712 7.498 175.076C7.05 175.431 6.826 175.916 6.826 176.532C6.826 177.223 7.08266 177.736 7.596 178.072C8.10933 178.399 8.73 178.562 9.458 178.562ZM6.952 168.067L5.762 168.067L5.762 166.877L5.16 166.877C4.32 166.877 3.75066 166.7 3.452 166.345C3.15333 165.981 3.004 165.491 3.004 164.875C3.004 164.353 3.03666 163.979 3.102 163.755L4.348 163.755C4.292 163.97 4.264 164.217 4.264 164.497C4.264 165.02 4.516 165.281 5.02 165.281L5.762 165.281L5.762 163.923L6.952 163.923L6.952 165.281L13 165.281L13 166.877L6.952 166.877L6.952 168.067ZM12.146 156.945C12.846 157.599 13.196 158.49 13.196 159.619C13.196 160.749 12.846 161.64 12.146 162.293C11.4367 162.947 10.5127 163.273 9.374 163.273C8.254 163.273 7.33933 162.947 6.63 162.293C5.92066 161.64 5.566 160.749 5.566 159.619C5.566 158.49 5.92066 157.599 6.63 156.945C7.33933 156.292 8.254 155.965 9.374 155.965C10.5127 155.965 11.4367 156.292 12.146 156.945ZM11.18 161.159C11.684 160.805 11.936 160.291 11.936 159.619C11.936 158.947 11.684 158.439 11.18 158.093C10.676 157.739 10.074 157.561 9.374 157.561C8.68333 157.561 8.086 157.739 7.582 158.093C7.078 158.439 6.826 158.947 6.826 159.619C6.826 160.291 7.078 160.805 7.582 161.159C8.086 161.505 8.68333 161.677 9.374 161.677C10.074 161.677 10.676 161.505 11.18 161.159ZM13 154.639L5.762 154.639L5.762 153.141L7.162 153.141L7.162 153.113C6.76066 153.019 6.39666 152.763 6.07 152.343C5.734 151.913 5.566 151.465 5.566 150.999C5.566 150.905 5.58 150.705 5.608 150.397L7.148 150.397C7.10133 150.649 7.078 150.877 7.078 151.083C7.078 151.643 7.29733 152.109 7.736 152.483C8.17466 152.856 8.78133 153.043 9.556 153.043L13 153.043L13 154.639ZM6.952 146.548L5.762 146.548L5.762 145.344L3.592 145.344L3.592 143.748L5.762 143.748L5.762 142.306L6.952 142.306L6.952 143.748L10.816 143.748C11.1893 143.748 11.4507 143.706 11.6 143.622C11.74 143.529 11.81 143.314 11.81 142.978C11.81 142.679 11.7913 142.455 11.754 142.306L12.986 142.306C13.042 142.773 13.07 143.118 13.07 143.342C13.07 144.126 12.93 144.653 12.65 144.924C12.3607 145.185 11.8847 145.325 11.222 145.344L6.952 145.344L6.952 146.548ZM13 141.158L3.004 141.158L3.004 139.562L6.714 139.562L6.714 139.534C6.378 139.329 6.10266 139.035 5.888 138.652C5.67333 138.26 5.566 137.831 5.566 137.364C5.566 136.561 5.776 135.936 6.196 135.488C6.616 135.031 7.22733 134.802 8.03 134.802L13 134.802L13 136.398L8.45 136.398C7.88066 136.417 7.47 136.538 7.218 136.762C6.95666 136.986 6.826 137.336 6.826 137.812C6.826 138.335 7.008 138.759 7.372 139.086C7.736 139.403 8.18866 139.562 8.73 139.562L13 139.562L13 141.158ZM9.794 126.553L9.794 131.873C10.4007 131.873 10.9093 131.71 11.32 131.383C11.7307 131.047 11.936 130.562 11.936 129.927C11.936 129.031 11.5347 128.443 10.732 128.163L10.732 126.651C11.5067 126.819 12.1133 127.206 12.552 127.813C12.9813 128.41 13.196 129.115 13.196 129.927C13.196 131.047 12.8507 131.92 12.16 132.545C11.46 133.161 10.536 133.469 9.388 133.469C8.324 133.469 7.42333 133.147 6.686 132.503C5.93933 131.859 5.566 131.014 5.566 129.969C5.566 128.858 5.99066 127.976 6.84 127.323C7.68933 126.67 8.674 126.413 9.794 126.553ZM8.744 131.873L8.744 128.149C8.212 128.186 7.75933 128.368 7.386 128.695C7.01266 129.022 6.826 129.446 6.826 129.969C6.826 130.51 7.008 130.958 7.372 131.313C7.736 131.668 8.19333 131.854 8.744 131.873ZM11.194 114.023L6.476 118.489L6.476 121.569L5.482 121.569L5.482 118.111L10.2 113.645L10.2 110.565L11.194 110.565L11.194 114.023ZM6.47599 114.023L5.482 114.023L5.48199 110.565L6.47599 110.565L6.47599 114.023ZM13 99.6405L5.76199 101.88L5.76199 100.186L11.166 98.7725L11.166 98.7445L5.76199 97.3865L5.76199 95.7765L11.166 94.4745L11.166 94.4465L5.76199 92.9765L5.76199 91.3525L13 93.6205L13 95.2585L7.62399 96.6025L7.62399 96.6305L13 97.9605L13 99.6405ZM12.146 84.334C12.846 84.9873 13.196 85.8787 13.196 87.008C13.196 88.1373 12.846 89.0287 12.146 89.682C11.4367 90.3353 10.5127 90.662 9.37399 90.662C8.25399 90.662 7.33933 90.3353 6.62999 89.682C5.92066 89.0287 5.56599 88.1373 5.56599 87.008C5.56599 85.8787 5.92066 84.9873 6.62999 84.334C7.33933 83.6807 8.25399 83.354 9.37399 83.354C10.5127 83.354 11.4367 83.6807 12.146 84.334ZM11.18 88.548C11.684 88.1933 11.936 87.68 11.936 87.008C11.936 86.336 11.684 85.8273 11.18 85.482C10.676 85.1273 10.074 84.95 9.37399 84.95C8.68333 84.95 8.08599 85.1273 7.58199 85.482C7.07799 85.8273 6.82599 86.336 6.82599 87.008C6.82599 87.68 7.07799 88.1933 7.58199 88.548C8.08599 88.8933 8.68333 89.066 9.37399 89.066C10.074 89.066 10.676 88.8933 11.18 88.548ZM13 82.0272L5.76199 82.0272L5.76199 80.5292L7.16199 80.5292L7.16199 80.5012C6.76066 80.4079 6.39666 80.1512 6.06999 79.7312C5.73399 79.3019 5.56599 78.8539 5.56599 78.3872C5.56599 78.2939 5.57999 78.0932 5.60799 77.7852L7.14799 77.7852C7.10133 78.0372 7.07799 78.2659 7.07799 78.4712C7.07799 79.0312 7.29733 79.4979 7.73599 79.8712C8.17466 80.2445 8.78133 80.4312 9.55599 80.4312L13 80.4312L13 82.0272ZM13 77.0633L3.00399 77.0633L3.00399 75.4673L13 75.4673L13 77.0633ZM3.00399 66.9104L13 66.9104L13 68.4224L12.02 68.4224L12.02 68.4504C12.804 68.8517 13.196 69.5984 13.196 70.6904C13.196 71.7917 12.8367 72.6317 12.118 73.2104C11.3993 73.789 10.4707 74.0784 9.33199 74.0784C8.09999 74.0784 7.16666 73.775 6.53199 73.1684C5.88799 72.5524 5.56599 71.8104 5.56599 70.9424C5.56599 70.457 5.66399 69.995 5.85999 69.5564C6.04666 69.1084 6.32666 68.7677 6.69999 68.5344L6.69999 68.5064L3.00399 68.5064L3.00399 66.9104ZM9.45799 72.4824C10.1393 72.4824 10.7227 72.3144 11.208 71.9784C11.6933 71.633 11.936 71.1337 11.936 70.4804C11.936 69.8177 11.684 69.3137 11.18 68.9684C10.676 68.623 10.074 68.4504 9.37399 68.4504C8.57133 68.4504 7.94599 68.6324 7.49799 68.9964C7.04999 69.351 6.82599 69.8364 6.82599 70.4524C6.82599 71.143 7.08266 71.6564 7.59599 71.9924C8.10933 72.319 8.72999 72.4824 9.45799 72.4824ZM13 59.6913L5.76199 61.9313L5.76199 60.2373L11.166 58.8233L11.166 58.7953L5.76199 57.4373L5.76199 55.8273L11.166 54.5253L11.166 54.4973L5.76199 53.0273L5.76199 51.4033L13 53.6713L13 55.3093L7.62399 56.6533L7.62399 56.6813L13 58.0113L13 59.6913ZM4.51599 50.3348L3.00399 50.3348L3.00399 48.7388L4.51599 48.7388L4.51599 50.3348ZM13 50.3348L5.76199 50.3348L5.76199 48.7388L13 48.7388L13 50.3348ZM3.00399 40.1818L13 40.1818L13 41.6938L12.02 41.6938L12.02 41.7218C12.804 42.1232 13.196 42.8698 13.196 43.9618C13.196 45.0632 12.8367 45.9032 12.118 46.4818C11.3993 47.0605 10.4707 47.3498 9.33199 47.3498C8.09999 47.3498 7.16666 47.0465 6.53199 46.4398C5.88799 45.8238 5.56599 45.0818 5.56599 44.2138C5.56599 43.7285 5.66399 43.2665 5.85999 42.8278C6.04666 42.3798 6.32666 42.0392 6.69999 41.8058L6.69999 41.7778L3.00399 41.7778L3.00399 40.1818ZM9.45799 45.7538C10.1393 45.7538 10.7227 45.5858 11.208 45.2498C11.6933 44.9045 11.936 44.4052 11.936 43.7518C11.936 43.0892 11.684 42.5852 11.18 42.2398C10.676 41.8945 10.074 41.7218 9.37399 41.7218C8.57133 41.7218 7.94599 41.9038 7.49799 42.2678C7.04999 42.6225 6.82599 43.1078 6.82599 43.7238C6.82599 44.4145 7.08266 44.9278 7.59599 45.2638C8.10933 45.5905 8.72999 45.7538 9.45799 45.7538ZM9.79399 31.8752L9.79399 37.1952C10.4007 37.1952 10.9093 37.0319 11.32 36.7052C11.7307 36.3692 11.936 35.8839 11.936 35.2492C11.936 34.3532 11.5347 33.7652 10.732 33.4852L10.732 31.9732C11.5067 32.1412 12.1133 32.5286 12.552 33.1352C12.9813 33.7326 13.196 34.4372 13.196 35.2492C13.196 36.3692 12.8507 37.2419 12.16 37.8672C11.46 38.4832 10.536 38.7912 9.38799 38.7912C8.32399 38.7912 7.42332 38.4692 6.68599 37.8252C5.93932 37.1812 5.56599 36.3366 5.56599 35.2912C5.56599 34.1806 5.99066 33.2986 6.83999 32.6452C7.68932 31.9919 8.67399 31.7352 9.79399 31.8752ZM8.74399 37.1952L8.74399 33.4712C8.21199 33.5086 7.75932 33.6906 7.38599 34.0172C7.01266 34.3439 6.82599 34.7686 6.82599 35.2912C6.82599 35.8326 7.00799 36.2806 7.37199 36.6352C7.73599 36.9899 8.19332 37.1766 8.74399 37.1952ZM13 25.1835L5.76199 27.4235L5.76199 25.7295L11.166 24.3155L11.166 24.2875L5.76199 22.9295L5.76199 21.3195L11.166 20.0175L11.166 19.9895L5.76199 18.5195L5.76199 16.8955L13 19.1635L13 20.8015L7.62399 22.1455L7.62399 22.1735L13 23.5035L13 25.1835ZM9.79399 9.30298L9.79399 14.623C10.4007 14.623 10.9093 14.4597 11.32 14.133C11.7307 13.797 11.936 13.3117 11.936 12.677C11.936 11.781 11.5347 11.193 10.732 10.913L10.732 9.40098C11.5067 9.56898 12.1133 9.95632 12.552 10.563C12.9813 11.1603 13.196 11.865 13.196 12.677C13.196 13.797 12.8507 14.6697 12.16 15.295C11.46 15.911 10.536 16.219 9.38799 16.219C8.32399 16.219 7.42332 15.897 6.68599 15.253C5.93932 14.609 5.56599 13.7643 5.56599 12.719C5.56599 11.6083 5.99066 10.7263 6.83999 10.073C7.68932 9.41965 8.67399 9.16298 9.79399 9.30298ZM8.74399 14.623L8.74399 10.899C8.21199 10.9363 7.75932 11.1183 7.38599 11.445C7.01266 11.7717 6.82599 12.1963 6.82599 12.719C6.82599 13.2603 7.00799 13.7083 7.37199 14.063C7.73599 14.4177 8.19332 14.6043 8.74399 14.623ZM13 8.04769L3.00399 8.04769L3.00399 6.45169L6.69999 6.45169L6.69999 6.42369C6.35466 6.19969 6.07932 5.89169 5.87399 5.49969C5.66866 5.09835 5.56599 4.68769 5.56599 4.26769C5.56599 3.17569 5.92999 2.34035 6.65799 1.76169C7.37666 1.17369 8.29599 0.879686 9.41599 0.879686C10.4707 0.879686 11.3667 1.15035 12.104 1.69169C12.832 2.22369 13.196 2.99369 13.196 4.00169C13.196 5.27102 12.7993 6.10635 12.006 6.50769L12.006 6.53569L13 6.53569L13 8.04769ZM9.38799 2.47569C8.68799 2.47569 8.08599 2.65302 7.58199 3.00769C7.07799 3.36235 6.82599 3.85235 6.82599 4.47769C6.82599 5.14035 7.05466 5.64435 7.51199 5.98969C7.96932 6.33502 8.59466 6.50769 9.38799 6.50769C10.1347 6.50769 10.746 6.32569 11.222 5.96169C11.698 5.59769 11.936 5.10302 11.936 4.47769C11.936 3.80569 11.6887 3.30635 11.194 2.97969C10.6993 2.64369 10.0973 2.47569 9.38799 2.47569Z" fill="#FF0000"/>
<path d="M37 83.16L29.762 83.16L29.762 81.648L30.77 81.648L30.77 81.606C30.3687 81.3353 30.07 81.032 29.874 80.696C29.6687 80.36 29.566 79.9213 29.566 79.38C29.566 78.9133 29.6687 78.498 29.874 78.134C30.0793 77.77 30.378 77.5087 30.77 77.35C29.9673 76.762 29.566 76.006 29.566 75.082C29.566 73.4673 30.378 72.66 32.002 72.66L37 72.66L37 74.256L32.772 74.256C32.5013 74.256 32.2867 74.2607 32.128 74.27C31.96 74.2793 31.7827 74.312 31.596 74.368C31.4093 74.4147 31.2693 74.4847 31.176 74.578C31.0733 74.662 30.9893 74.788 30.924 74.956C30.8587 75.124 30.826 75.3293 30.826 75.572C30.826 76.5987 31.47 77.112 32.758 77.112L37 77.112L37 78.708L32.352 78.708C31.8293 78.708 31.4467 78.806 31.204 79.002C30.952 79.1887 30.826 79.5153 30.826 79.982C30.826 80.4207 30.9987 80.794 31.344 81.102C31.68 81.41 32.1327 81.564 32.702 81.564L37 81.564L37 83.16ZM36.146 64.9864C36.846 65.6397 37.196 66.531 37.196 67.6604C37.196 68.7897 36.846 69.681 36.146 70.3344C35.4367 70.9877 34.5127 71.3144 33.374 71.3144C32.254 71.3144 31.3393 70.9877 30.63 70.3344C29.9207 69.681 29.566 68.7897 29.566 67.6604C29.566 66.531 29.9207 65.6397 30.63 64.9864C31.3393 64.333 32.254 64.0064 33.374 64.0064C34.5127 64.0064 35.4367 64.333 36.146 64.9864ZM35.18 69.2004C35.684 68.8457 35.936 68.3324 35.936 67.6604C35.936 66.9884 35.684 66.4797 35.18 66.1344C34.676 65.7797 34.074 65.6024 33.374 65.6024C32.6833 65.6024 32.086 65.7797 31.582 66.1344C31.078 66.4797 30.826 66.9884 30.826 67.6604C30.826 68.3324 31.078 68.8457 31.582 69.2004C32.086 69.5457 32.6833 69.7184 33.374 69.7184C34.074 69.7184 34.676 69.5457 35.18 69.2004ZM37 62.6795L29.762 62.6795L29.762 61.1675L30.77 61.1675L30.77 61.1255C30.3687 60.8549 30.07 60.5515 29.874 60.2155C29.6687 59.8795 29.566 59.4409 29.566 58.8995C29.566 58.4329 29.6687 58.0175 29.874 57.6535C30.0793 57.2895 30.378 57.0282 30.77 56.8695C29.9673 56.2815 29.566 55.5255 29.566 54.6015C29.566 52.9869 30.378 52.1795 32.002 52.1795L37 52.1795L37 53.7755L32.772 53.7755C32.5013 53.7755 32.2867 53.7802 32.128 53.7895C31.96 53.7989 31.7827 53.8315 31.596 53.8875C31.4093 53.9342 31.2693 54.0042 31.176 54.0975C31.0733 54.1815 30.9893 54.3075 30.924 54.4755C30.8587 54.6435 30.826 54.8489 30.826 55.0915C30.826 56.1182 31.47 56.6315 32.758 56.6315L37 56.6315L37 58.2275L32.352 58.2275C31.8293 58.2275 31.4467 58.3255 31.204 58.5215C30.952 58.7082 30.826 59.0349 30.826 59.5015C30.826 59.9402 30.9987 60.3135 31.344 60.6215C31.68 60.9295 32.1327 61.0835 32.702 61.0835L37 61.0835L37 62.6795ZM33.794 43.9319L33.794 49.2519C34.4007 49.2519 34.9093 49.0886 35.32 48.7619C35.7307 48.4259 35.936 47.9406 35.936 47.3059C35.936 46.4099 35.5347 45.8219 34.732 45.5419L34.732 44.0299C35.5067 44.1979 36.1133 44.5852 36.552 45.1919C36.9813 45.7892 37.196 46.4939 37.196 47.3059C37.196 48.4259 36.8507 49.2986 36.16 49.9239C35.46 50.5399 34.536 50.8479 33.388 50.8479C32.324 50.8479 31.4233 50.5259 30.686 49.8819C29.9393 49.2379 29.566 48.3932 29.566 47.3479C29.566 46.2372 29.9907 45.3552 30.84 44.7019C31.6893 44.0486 32.674 43.7919 33.794 43.9319ZM32.744 49.2519L32.744 45.5279C32.212 45.5652 31.7593 45.7472 31.386 46.0739C31.0127 46.4006 30.826 46.8252 30.826 47.3479C30.826 47.8892 31.008 48.3372 31.372 48.6919C31.736 49.0466 32.1933 49.2332 32.744 49.2519ZM37 42.7186L29.762 42.7186L29.762 41.2066L30.826 41.2066L30.854 41.1786C30.4527 40.9266 30.14 40.6046 29.916 40.2126C29.6827 39.8206 29.566 39.3913 29.566 38.9246C29.566 38.1219 29.776 37.4966 30.196 37.0486C30.616 36.5913 31.2273 36.3626 32.03 36.3626L37 36.3626L37 37.9586L32.45 37.9586C31.8807 37.9773 31.47 38.0986 31.218 38.3226C30.9567 38.5466 30.826 38.8966 30.826 39.3726C30.826 39.8953 31.008 40.3199 31.372 40.6466C31.736 40.9639 32.1887 41.1226 32.73 41.1226L37 41.1226L37 42.7186ZM30.952 35.4075L29.762 35.4075L29.762 34.2035L27.592 34.2035L27.592 32.6075L29.762 32.6075L29.762 31.1655L30.952 31.1655L30.952 32.6075L34.816 32.6075C35.1893 32.6075 35.4507 32.5655 35.6 32.4815C35.74 32.3882 35.81 32.1735 35.81 31.8375C35.81 31.5389 35.7913 31.3149 35.754 31.1655L36.986 31.1655C37.042 31.6322 37.07 31.9775 37.07 32.2015C37.07 32.9855 36.93 33.5129 36.65 33.7835C36.3607 34.0449 35.8847 34.1849 35.222 34.2035L30.952 34.2035L30.952 35.4075ZM31.666 23.4749L29.916 23.4749L29.916 22.0469L31.666 22.0469L31.666 19.2329L33.094 19.2329L33.094 22.0469L34.844 22.0469L34.844 23.4749L33.094 23.4749L33.094 26.2889L31.666 26.2889L31.666 23.4749ZM37 26.2889L35.572 26.2889L35.572 19.2329L37 19.2329L37 26.2889ZM27.004 6.39592L31.092 4.81392L27.004 3.24592L27.004 1.63592L32.772 1.63592L32.772 2.68592L28.264 2.68592L28.264 2.71392L32.772 4.43592L32.772 5.21992L28.264 6.94192L28.264 6.96992L32.772 6.96992L32.772 8.01992L27.004 8.01992L27.004 6.39592ZM27.004 9.19592L27.914 9.19592L27.914 10.9599L32.772 10.9599L32.772 12.0799L27.914 12.0799L27.914 13.8439L27.004 13.8439L27.004 9.19592Z" fill="#FF0000"/>
<path d="M3.494 1007.18L3.83 1006.44C5.132 1006.76 6.322 1007.19 7.4 1007.71C9.92 1006.76 12.146 1004.88 13.14 1002.52C13.336 1002.77 13.77 1003.09 14.05 1003.26C13 1005.49 10.984 1007.22 8.534 1008.34C11.166 1009.92 13.014 1012.12 14.106 1014.52C13.84 1014.67 13.378 1015.06 13.196 1015.31C11.754 1011.93 8.926 1009.04 4.586 1007.8L4.586 1011.45C6.238 1012.32 7.666 1013.37 8.716 1014.54C8.52 1014.74 8.142 1015.2 7.96 1015.47C6.448 1013.59 3.998 1012.12 1.296 1011.25L1.548 1010.16C2.234 1010.39 2.906 1010.65 3.55 1010.95L3.55 1007.38L3.494 1007.18ZM10.522 988.714L10.522 993.908C12.076 992.984 12.874 991.206 13.14 988.504C13.35 988.742 13.798 989.022 14.078 989.148C13.7 992.144 12.636 993.992 10.522 994.986L10.522 995.056C12.342 995.756 13.476 997.282 14.064 1000.89C13.798 1000.98 13.364 1001.23 13.154 1001.43C12.692 998.29 11.852 996.89 10.522 996.218L10.522 1001.24L9.612 1001.24L9.612 995.868C9.22 995.77 8.786 995.7 8.324 995.644L8.324 1001.15L7.372 1001.15L7.372 995.546L6.21 995.546L6.21 999.9L5.3 999.9L5.3 995.546L4.166 995.546L4.166 1000.59L3.228 1000.59L3.228 997.758C2.724 997.982 2.094 998.388 1.632 998.808L1.268 997.912C1.772 997.408 2.5 996.904 3.018 996.694L3.228 997.142L3.228 992.97L3.046 993.488C2.57 993.096 1.786 992.578 1.268 992.284L1.59 991.22C2.206 991.612 2.794 992.088 3.228 992.48L3.228 989.4L4.166 989.4L4.166 994.51L5.3 994.51L5.3 990.016L6.21 990.016L6.21 994.51L7.372 994.51L7.372 988.854L8.324 988.854L8.324 994.566C8.786 994.608 9.206 994.678 9.612 994.776L9.612 988.714L10.522 988.714ZM7.498 974.672L8.534 974.672L8.534 980.44L12.72 980.44C13.42 980.44 13.742 980.622 13.91 981.14C14.078 981.658 14.106 982.568 14.092 983.898C13.798 983.982 13.322 984.164 13.028 984.346C13.07 983.226 13.07 982.19 13.056 981.896C13.042 981.588 12.972 981.504 12.72 981.504L8.534 981.504L8.534 987.286L7.498 987.286L7.498 981.504L5.258 981.504L5.258 980.846C4.712 979.852 3.97 978.774 3.27 977.962L3.27 985.844L2.262 985.844L2.262 976.87L2.206 976.618L2.78 975.862C3.984 977.052 5.286 978.886 6.126 980.44L7.498 980.44L7.498 974.672ZM6.952 969.978L5.762 969.978L5.762 968.788L5.16 968.788C4.32 968.788 3.75066 968.61 3.452 968.256C3.15333 967.892 3.004 967.402 3.004 966.786C3.004 966.263 3.03666 965.89 3.102 965.666L4.348 965.666C4.292 965.88 4.264 966.128 4.264 966.408C4.264 966.93 4.516 967.192 5.02 967.192L5.762 967.192L5.762 965.834L6.952 965.834L6.952 967.192L13 967.192L13 968.788L6.952 968.788L6.952 969.978ZM12.146 958.855C12.846 959.509 13.196 960.4 13.196 961.529C13.196 962.659 12.846 963.55 12.146 964.203C11.4367 964.857 10.5127 965.183 9.374 965.183C8.254 965.183 7.33933 964.857 6.63 964.203C5.92066 963.55 5.566 962.659 5.566 961.529C5.566 960.4 5.92066 959.509 6.63 958.855C7.33933 958.202 8.254 957.875 9.374 957.875C10.5127 957.875 11.4367 958.202 12.146 958.855ZM11.18 963.069C11.684 962.715 11.936 962.201 11.936 961.529C11.936 960.857 11.684 960.349 11.18 960.003C10.676 959.649 10.074 959.471 9.374 959.471C8.68333 959.471 8.086 959.649 7.582 960.003C7.078 960.349 6.826 960.857 6.826 961.529C6.826 962.201 7.078 962.715 7.582 963.069C8.086 963.415 8.68333 963.587 9.374 963.587C10.074 963.587 10.676 963.415 11.18 963.069ZM13 956.549L5.762 956.549L5.762 955.051L7.162 955.051L7.162 955.023C6.76066 954.929 6.39666 954.673 6.07 954.253C5.734 953.823 5.566 953.375 5.566 952.909C5.566 952.815 5.58 952.615 5.608 952.307L7.148 952.307C7.10133 952.559 7.078 952.787 7.078 952.993C7.078 953.553 7.29733 954.019 7.736 954.393C8.17466 954.766 8.78133 954.953 9.556 954.953L13 954.953L13 956.549ZM4.516 947.688L3.004 947.688L3.004 946.092L4.516 946.092L4.516 947.688ZM13 947.688L5.762 947.688L5.762 946.092L13 946.092L13 947.688ZM13 944.353L5.762 944.353L5.762 942.841L6.826 942.841L6.854 942.813C6.45266 942.561 6.14 942.239 5.916 941.847C5.68266 941.455 5.566 941.026 5.566 940.559C5.566 939.757 5.776 939.131 6.196 938.683C6.616 938.226 7.22733 937.997 8.03 937.997L13 937.997L13 939.593L8.45 939.593C7.88066 939.612 7.47 939.733 7.218 939.957C6.95666 940.181 6.826 940.531 6.826 941.007C6.826 941.53 7.008 941.955 7.372 942.281C7.736 942.599 8.18866 942.757 8.73 942.757L13 942.757L13 944.353ZM6.952 937.042L5.762 937.042L5.762 935.838L3.592 935.838L3.592 934.242L5.762 934.242L5.762 932.8L6.952 932.8L6.952 934.242L10.816 934.242C11.1893 934.242 11.4507 934.2 11.6 934.116C11.74 934.023 11.81 933.808 11.81 933.472C11.81 933.174 11.7913 932.95 11.754 932.8L12.986 932.8C13.042 933.267 13.07 933.612 13.07 933.836C13.07 934.62 12.93 935.148 12.65 935.418C12.3607 935.68 11.8847 935.82 11.222 935.838L6.952 935.838L6.952 937.042ZM9.794 925.086L9.794 930.406C10.4007 930.406 10.9093 930.243 11.32 929.916C11.7307 929.58 11.936 929.095 11.936 928.46C11.936 927.564 11.5347 926.976 10.732 926.696L10.732 925.184C11.5067 925.352 12.1133 925.74 12.552 926.346C12.9813 926.944 13.196 927.648 13.196 928.46C13.196 929.58 12.8507 930.453 12.16 931.078C11.46 931.694 10.536 932.002 9.388 932.002C8.324 932.002 7.42333 931.68 6.686 931.036C5.93933 930.392 5.566 929.548 5.566 928.502C5.566 927.392 5.99066 926.51 6.84 925.856C7.68933 925.203 8.674 924.946 9.794 925.086ZM8.744 930.406L8.744 926.682C8.212 926.72 7.75933 926.902 7.386 927.228C7.01266 927.555 6.826 927.98 6.826 928.502C6.826 929.044 7.008 929.492 7.372 929.846C7.736 930.201 8.19333 930.388 8.744 930.406ZM13 923.873L5.762 923.873L5.762 922.375L7.162 922.375L7.162 922.347C6.76066 922.254 6.39666 921.997 6.07 921.577C5.734 921.148 5.566 920.7 5.566 920.233C5.566 920.14 5.58 919.939 5.608 919.631L7.148 919.631C7.10133 919.883 7.078 920.112 7.078 920.317C7.078 920.877 7.29733 921.344 7.736 921.717C8.17466 922.09 8.78133 922.277 9.556 922.277L13 922.277L13 923.873ZM15.674 918.909L5.762 918.909L5.762 917.397L6.742 917.397L6.742 917.369C5.958 916.949 5.566 916.202 5.566 915.129C5.566 914.037 5.93 913.202 6.658 912.623C7.37666 912.035 8.296 911.741 9.416 911.741C10.4707 911.741 11.3667 912.012 12.104 912.553C12.832 913.085 13.196 913.855 13.196 914.863C13.196 915.367 13.1027 915.838 12.916 916.277C12.72 916.716 12.4353 917.052 12.062 917.285L12.062 917.313L15.674 917.313L15.674 918.909ZM9.388 913.337C8.688 913.337 8.086 913.514 7.582 913.869C7.078 914.224 6.826 914.714 6.826 915.339C6.826 916.002 7.05466 916.506 7.512 916.851C7.96933 917.196 8.59466 917.369 9.388 917.369C10.1347 917.369 10.746 917.187 11.222 916.823C11.698 916.459 11.936 915.964 11.936 915.339C11.936 914.667 11.6887 914.168 11.194 913.841C10.6993 913.505 10.0973 913.337 9.388 913.337ZM13 910.35L3.00399 910.35L3.00399 908.754L13 908.754L13 910.35ZM7.66599 900.953L11.39 900.953C11.586 900.953 11.726 900.925 11.81 900.869C11.894 900.813 11.936 900.715 11.936 900.575C11.936 900.417 11.9267 900.286 11.908 900.183L13.014 900.183C13.1353 900.529 13.196 900.865 13.196 901.191C13.196 901.901 12.902 902.311 12.314 902.423C12.6033 902.722 12.8227 903.1 12.972 903.557C13.1213 904.015 13.196 904.472 13.196 904.929C13.196 905.639 13.014 906.231 12.65 906.707C12.2767 907.174 11.754 907.407 11.082 907.407C10.7367 907.407 10.438 907.356 10.186 907.253C9.92466 907.141 9.71933 907.006 9.57 906.847C9.42066 906.689 9.29466 906.479 9.19199 906.217C9.08 905.956 9.00066 905.718 8.954 905.503C8.90733 905.279 8.86533 905.009 8.828 904.691L8.71599 903.809C8.65066 903.296 8.55733 902.941 8.43599 902.745C8.31466 902.549 8.10466 902.451 7.80599 902.451C7.15266 902.451 6.82599 902.951 6.82599 903.949C6.82599 904.416 6.92399 904.789 7.11999 905.069C7.30666 905.349 7.59133 905.508 7.97399 905.545L7.97399 907.141C7.11533 907.085 6.49933 906.754 6.12599 906.147C5.75266 905.531 5.56599 904.766 5.56599 903.851C5.56599 903.058 5.73866 902.377 6.08399 901.807C6.42933 901.238 6.95666 900.953 7.66599 900.953ZM10.564 902.549L9.37399 902.549C9.52333 902.801 9.63533 903.212 9.70999 903.781L9.79399 904.425C9.91533 905.349 10.298 905.811 10.942 905.811C11.278 905.811 11.53 905.681 11.698 905.419C11.8567 905.149 11.936 904.822 11.936 904.439C11.936 903.945 11.824 903.506 11.6 903.123C11.3667 902.741 11.0213 902.549 10.564 902.549ZM13 899.236L5.76199 899.236L5.76199 897.724L6.82599 897.724L6.85399 897.696C6.45266 897.444 6.13999 897.122 5.91599 896.73C5.68266 896.338 5.56599 895.909 5.56599 895.442C5.56599 894.64 5.77599 894.014 6.19599 893.566C6.61599 893.109 7.22733 892.88 8.02999 892.88L13 892.88L13 894.476L8.44999 894.476C7.88066 894.495 7.46999 894.616 7.21799 894.84C6.95666 895.064 6.82599 895.414 6.82599 895.89C6.82599 896.413 7.00799 896.838 7.37199 897.164C7.73599 897.482 8.18866 897.64 8.72999 897.64L13 897.64L13 899.236ZM9.79399 884.631L9.79399 889.951C10.4007 889.951 10.9093 889.788 11.32 889.461C11.7307 889.125 11.936 888.64 11.936 888.005C11.936 887.109 11.5347 886.521 10.732 886.241L10.732 884.729C11.5067 884.897 12.1133 885.284 12.552 885.891C12.9813 886.488 13.196 887.193 13.196 888.005C13.196 889.125 12.8507 889.998 12.16 890.623C11.46 891.239 10.536 891.547 9.38799 891.547C8.32399 891.547 7.42333 891.225 6.68599 890.581C5.93933 889.937 5.56599 889.092 5.56599 888.047C5.56599 886.936 5.99066 886.054 6.83999 885.401C7.68933 884.748 8.67399 884.491 9.79399 884.631ZM8.74399 889.951L8.74399 886.227C8.21199 886.264 7.75933 886.446 7.38599 886.773C7.01266 887.1 6.82599 887.524 6.82599 888.047C6.82599 888.588 7.00799 889.036 7.37199 889.391C7.73599 889.746 8.19333 889.932 8.74399 889.951ZM6.95199 884.146L5.76199 884.146L5.76199 882.942L3.59199 882.942L3.59199 881.346L5.76199 881.346L5.76199 879.904L6.95199 879.904L6.95199 881.346L10.816 881.346C11.1893 881.346 11.4507 881.304 11.6 881.22C11.74 881.126 11.81 880.912 11.81 880.576C11.81 880.277 11.7913 880.053 11.754 879.904L12.986 879.904C13.042 880.37 13.07 880.716 13.07 880.94C13.07 881.724 12.93 882.251 12.65 882.522C12.3607 882.783 11.8847 882.923 11.222 882.942L6.95199 882.942L6.95199 884.146ZM7.66599 872.694L11.39 872.694C11.586 872.694 11.726 872.666 11.81 872.61C11.894 872.554 11.936 872.456 11.936 872.316C11.936 872.157 11.9267 872.026 11.908 871.924L13.014 871.924C13.1353 872.269 13.196 872.605 13.196 872.932C13.196 873.641 12.902 874.052 12.314 874.164C12.6033 874.462 12.8227 874.84 12.972 875.298C13.1213 875.755 13.196 876.212 13.196 876.67C13.196 877.379 13.014 877.972 12.65 878.448C12.2767 878.914 11.754 879.148 11.082 879.148C10.7367 879.148 10.438 879.096 10.186 878.994C9.92466 878.882 9.71933 878.746 9.56999 878.588C9.42066 878.429 9.29466 878.219 9.19199 877.958C9.07999 877.696 9.00066 877.458 8.95399 877.244C8.90733 877.02 8.86533 876.749 8.82799 876.432L8.71599 875.55C8.65066 875.036 8.55733 874.682 8.43599 874.486C8.31466 874.29 8.10466 874.192 7.80599 874.192C7.15266 874.192 6.82599 874.691 6.82599 875.69C6.82599 876.156 6.92399 876.53 7.11999 876.81C7.30666 877.09 7.59133 877.248 7.97399 877.286L7.97399 878.882C7.11533 878.826 6.49933 878.494 6.12599 877.888C5.75266 877.272 5.56599 876.506 5.56599 875.592C5.56599 874.798 5.73866 874.117 6.08399 873.548C6.42933 872.978 6.95666 872.694 7.66599 872.694ZM10.564 874.29L9.37399 874.29C9.52333 874.542 9.63533 874.952 9.70999 875.522L9.79399 876.166C9.91533 877.09 10.298 877.552 10.942 877.552C11.278 877.552 11.53 877.421 11.698 877.16C11.8567 876.889 11.936 876.562 11.936 876.18C11.936 875.685 11.824 875.246 11.6 874.864C11.3667 874.481 11.0213 874.29 10.564 874.29ZM13 870.976L5.76199 870.976L5.76199 869.478L7.16199 869.478L7.16199 869.45C6.76066 869.357 6.39666 869.1 6.06999 868.68C5.73399 868.251 5.56599 867.803 5.56599 867.336C5.56599 867.243 5.57999 867.042 5.60799 866.734L7.14799 866.734C7.10133 866.986 7.07799 867.215 7.07799 867.42C7.07799 867.98 7.29733 868.447 7.73599 868.82C8.17466 869.194 8.78133 869.38 9.55599 869.38L13 869.38L13 870.976ZM12.972 864.109L5.76199 866.853L5.76199 865.103L11.166 863.213L11.166 863.185L5.76199 861.351L5.76199 859.685L13.392 862.499C14.2133 862.825 14.75 863.077 15.002 863.255C15.5807 863.665 15.87 864.267 15.87 865.061C15.87 865.434 15.842 865.803 15.786 866.167L14.442 866.167C14.5073 865.756 14.54 865.504 14.54 865.411C14.54 865.075 14.456 864.832 14.288 864.683C14.1293 864.524 13.8773 864.393 13.532 864.291L12.972 864.109ZM5.76199 848.542L13 848.542L13 850.11L11.992 850.11L11.992 850.138C12.3467 850.334 12.636 850.628 12.86 851.02C13.084 851.403 13.196 851.795 13.196 852.196C13.196 853.139 12.9627 853.825 12.496 854.254C12.0293 854.684 11.3153 854.898 10.354 854.898L5.76199 854.898L5.76199 853.302L10.2 853.302C10.816 853.302 11.2593 853.186 11.53 852.952C11.8007 852.719 11.936 852.374 11.936 851.916C11.936 850.731 11.278 850.138 9.96199 850.138L5.76199 850.138L5.76199 848.542ZM10.676 847.251L10.676 845.655C11.516 845.571 11.936 845.025 11.936 844.017C11.936 843.831 11.9267 843.658 11.908 843.499C11.88 843.331 11.838 843.159 11.782 842.981C11.7167 842.795 11.6187 842.65 11.488 842.547C11.348 842.445 11.18 842.398 10.984 842.407C10.8627 842.417 10.7553 842.445 10.662 842.491C10.5687 842.529 10.4893 842.599 10.424 842.701C10.3493 842.795 10.2887 842.888 10.242 842.981C10.1953 843.075 10.1487 843.205 10.102 843.373C10.0553 843.541 10.018 843.681 9.98999 843.793C9.96199 843.905 9.92933 844.069 9.89199 844.283C9.84533 844.498 9.80799 844.661 9.77999 844.773C9.70533 845.109 9.62599 845.399 9.54199 845.641C9.44866 845.884 9.32733 846.127 9.17799 846.369C9.01933 846.603 8.81399 846.785 8.56199 846.915C8.30066 847.037 7.99266 847.097 7.63799 847.097C7.26466 847.097 6.93799 847.004 6.65799 846.817C6.36866 846.631 6.14933 846.383 5.99999 846.075C5.85066 845.767 5.74333 845.445 5.67799 845.109C5.60333 844.773 5.56599 844.428 5.56599 844.073C5.56599 843.261 5.74799 842.575 6.11199 842.015C6.46666 841.455 7.02666 841.133 7.79199 841.049L7.79199 842.715C7.14799 842.846 6.82599 843.336 6.82599 844.185C6.82599 844.381 6.84466 844.568 6.88199 844.745C6.90999 844.923 6.98466 845.095 7.10599 845.263C7.21799 845.422 7.37199 845.501 7.56799 845.501C7.67999 845.501 7.78266 845.483 7.87599 845.445C7.95999 845.408 8.03466 845.338 8.09999 845.235C8.16533 845.133 8.22133 845.039 8.26799 844.955C8.31466 844.871 8.36599 844.741 8.42199 844.563C8.46866 844.377 8.50599 844.237 8.53399 844.143C8.55266 844.041 8.58533 843.873 8.63199 843.639C8.67866 843.406 8.71133 843.243 8.72999 843.149C8.80466 842.804 8.88866 842.515 8.98199 842.281C9.06599 842.039 9.18733 841.796 9.34599 841.553C9.50466 841.311 9.70999 841.129 9.96199 841.007C10.2047 840.877 10.4987 840.811 10.844 840.811C11.3853 840.811 11.8427 840.984 12.216 841.329C12.58 841.665 12.8367 842.067 12.986 842.533C13.126 843 13.196 843.504 13.196 844.045C13.196 844.997 12.9813 845.767 12.552 846.355C12.1227 846.934 11.4973 847.233 10.676 847.251ZM9.79399 833.033L9.79399 838.353C10.4007 838.353 10.9093 838.19 11.32 837.863C11.7307 837.527 11.936 837.042 11.936 836.407C11.936 835.511 11.5347 834.923 10.732 834.643L10.732 833.131C11.5067 833.299 12.1133 833.687 12.552 834.293C12.9813 834.891 13.196 835.595 13.196 836.407C13.196 837.527 12.8507 838.4 12.16 839.025C11.46 839.641 10.536 839.949 9.38799 839.949C8.32399 839.949 7.42333 839.627 6.68599 838.983C5.93933 838.339 5.56599 837.495 5.56599 836.449C5.56599 835.339 5.99066 834.457 6.83999 833.803C7.68933 833.15 8.67399 832.893 9.79399 833.033ZM8.74399 838.353L8.74399 834.629C8.21199 834.667 7.75933 834.849 7.38599 835.175C7.01266 835.502 6.82599 835.927 6.82599 836.449C6.82599 836.991 7.00799 837.439 7.37199 837.793C7.73599 838.148 8.19333 838.335 8.74399 838.353ZM12.146 821.932C12.846 822.585 13.196 823.476 13.196 824.606C13.196 825.735 12.846 826.626 12.146 827.28C11.4367 827.933 10.5127 828.26 9.37399 828.26C8.25399 828.26 7.33932 827.933 6.62999 827.28C5.92066 826.626 5.56599 825.735 5.56599 824.606C5.56599 823.476 5.92066 822.585 6.62999 821.932C7.33932 821.278 8.25399 820.952 9.37399 820.952C10.5127 820.952 11.4367 821.278 12.146 821.932ZM11.18 826.146C11.684 825.791 11.936 825.278 11.936 824.606C11.936 823.934 11.684 823.425 11.18 823.08C10.676 822.725 10.074 822.548 9.37399 822.548C8.68332 822.548 8.08599 822.725 7.58199 823.08C7.07799 823.425 6.82599 823.934 6.82599 824.606C6.82599 825.278 7.07799 825.791 7.58199 826.146C8.08599 826.491 8.68333 826.664 9.37399 826.664C10.074 826.664 10.676 826.491 11.18 826.146ZM13 819.625L5.76199 819.625L5.76199 818.113L6.82599 818.113L6.85399 818.085C6.45266 817.833 6.13999 817.511 5.91599 817.119C5.68266 816.727 5.56599 816.298 5.56599 815.831C5.56599 815.028 5.77599 814.403 6.19599 813.955C6.61599 813.498 7.22732 813.269 8.02999 813.269L13 813.269L13 814.865L8.44999 814.865C7.88066 814.884 7.46999 815.005 7.21799 815.229C6.95666 815.453 6.82599 815.803 6.82599 816.279C6.82599 816.802 7.00799 817.226 7.37199 817.553C7.73599 817.87 8.18866 818.029 8.72999 818.029L13 818.029L13 819.625ZM13 811.544L3.00399 811.544L3.00399 809.948L13 809.948L13 811.544ZM12.972 806.263L5.76199 809.007L5.76199 807.257L11.166 805.367L11.166 805.339L5.76199 803.505L5.76199 801.839L13.392 804.653C14.2133 804.979 14.75 805.231 15.002 805.409C15.5807 805.819 15.87 806.421 15.87 807.215C15.87 807.588 15.842 807.957 15.786 808.321L14.442 808.321C14.5073 807.91 14.54 807.658 14.54 807.565C14.54 807.229 14.456 806.986 14.288 806.837C14.1293 806.678 13.8773 806.547 13.532 806.445L12.972 806.263ZM5.9453 790.134C6.96614 790.134 7.74999 790.482 8.29687 791.18C8.83918 791.877 9.11034 792.859 9.11034 794.126L9.11034 795.274L13 795.274L13 796.532L3.00585 796.532L3.00585 793.887C3.00585 791.385 3.98567 790.134 5.9453 790.134ZM8.03026 795.274L8.03026 794.27C8.03026 793.276 7.87076 792.556 7.55175 792.109C7.22818 791.663 6.71093 791.439 5.99999 791.439C5.35741 791.439 4.87662 791.647 4.55761 792.062C4.2386 792.476 4.07909 793.123 4.07909 794.003L4.07909 795.274L8.03026 795.274ZM9.23339 778.485C10.4639 778.485 11.4232 778.782 12.1113 779.374C12.7949 779.962 13.1367 780.771 13.1367 781.801C13.1367 782.776 12.8336 783.553 12.2275 784.132C11.6169 784.706 10.7601 785.025 9.65722 785.089L9.65722 786.996L13 786.996L13 788.227L5.49413 788.227L5.49413 786.996L8.61815 786.996L8.61815 785.075C7.57453 784.975 6.77017 784.638 6.20507 784.063C5.63996 783.489 5.35741 782.726 5.35741 781.773C5.35741 780.762 5.70604 779.962 6.40331 779.374C7.10058 778.782 8.04393 778.485 9.23339 778.485ZM9.23339 783.831C10.1813 783.831 10.8991 783.669 11.3867 783.346C11.8743 783.022 12.1182 782.503 12.1182 781.787C12.1182 781.072 11.8743 780.554 11.3867 780.235C10.8991 779.916 10.1813 779.757 9.23339 779.757C8.29914 779.757 7.59276 779.919 7.11425 780.242C6.63117 780.566 6.38964 781.081 6.38964 781.787C6.38964 782.503 6.63117 783.022 7.11425 783.346C7.59276 783.669 8.29914 783.831 9.23339 783.831ZM6.53319 771.41L6.53319 773.864L13 773.864L13 775.081L6.53319 775.081L6.53319 777.501L5.49413 777.501L5.49413 771.41L6.53319 771.41ZM13 765.285L11.9336 765.524L11.9336 765.579C12.403 765.953 12.722 766.326 12.8906 766.7C13.0547 767.069 13.1367 767.536 13.1367 768.102C13.1367 768.84 12.943 769.419 12.5557 769.838C12.1683 770.257 11.6214 770.467 10.915 770.467C9.39289 770.467 8.59537 769.266 8.52245 766.864L8.4746 765.593L8.03026 765.593C7.4606 765.593 7.04133 765.716 6.77245 765.962C6.49901 766.208 6.36229 766.602 6.36229 767.145C6.36229 767.541 6.42154 767.917 6.54003 768.272C6.65852 768.623 6.79068 768.954 6.93651 769.264L6.01366 769.64C5.81314 769.261 5.65591 768.849 5.54198 768.402C5.42805 767.956 5.37108 767.514 5.37108 767.076C5.37108 766.169 5.5716 765.495 5.97265 765.053C6.37369 764.611 7.01171 764.39 7.88671 764.39L13 764.39L13 765.285ZM12.1455 767.821C12.1455 767.133 11.9609 766.593 11.5918 766.201C11.2181 765.805 10.6894 765.606 10.0058 765.606L9.32909 765.606L9.37694 766.714C9.40884 767.575 9.54556 768.204 9.7871 768.601C10.0286 768.993 10.4092 769.188 10.9287 769.188C11.3206 769.188 11.6214 769.07 11.831 768.833C12.0407 768.591 12.1455 768.254 12.1455 767.821Z" fill="#FF0000"/>
<path d="M7.666 593.098L11.39 593.098C11.586 593.098 11.726 593.07 11.81 593.014C11.894 592.958 11.936 592.86 11.936 592.72C11.936 592.561 11.9267 592.431 11.908 592.328L13.014 592.328C13.1353 592.673 13.196 593.009 13.196 593.336C13.196 594.045 12.902 594.456 12.314 594.568C12.6033 594.867 12.8227 595.245 12.972 595.702C13.1213 596.159 13.196 596.617 13.196 597.074C13.196 597.783 13.014 598.376 12.65 598.852C12.2767 599.319 11.754 599.552 11.082 599.552C10.7367 599.552 10.438 599.501 10.186 599.398C9.92467 599.286 9.71933 599.151 9.57 598.992C9.42067 598.833 9.29467 598.623 9.192 598.362C9.08 598.101 9.00067 597.863 8.954 597.648C8.90733 597.424 8.86533 597.153 8.828 596.836L8.716 595.954C8.65067 595.441 8.55733 595.086 8.436 594.89C8.31467 594.694 8.10467 594.596 7.806 594.596C7.15267 594.596 6.826 595.095 6.826 596.094C6.826 596.561 6.924 596.934 7.12 597.214C7.30667 597.494 7.59133 597.653 7.974 597.69L7.974 599.286C7.11533 599.23 6.49933 598.899 6.126 598.292C5.75267 597.676 5.566 596.911 5.566 595.996C5.566 595.203 5.73867 594.521 6.084 593.952C6.42933 593.383 6.95667 593.098 7.666 593.098ZM10.564 594.694L9.374 594.694C9.52333 594.946 9.63533 595.357 9.71 595.926L9.794 596.57C9.91533 597.494 10.298 597.956 10.942 597.956C11.278 597.956 11.53 597.825 11.698 597.564C11.8567 597.293 11.936 596.967 11.936 596.584C11.936 596.089 11.824 595.651 11.6 595.268C11.3667 594.885 11.0213 594.694 10.564 594.694ZM13 591.381L5.762 591.381L5.762 589.869L6.826 589.869L6.854 589.841C6.45267 589.589 6.14 589.267 5.916 588.875C5.68267 588.483 5.566 588.053 5.566 587.587C5.566 586.784 5.776 586.159 6.196 585.711C6.616 585.253 7.22733 585.025 8.03 585.025L13 585.025L13 586.621L8.45 586.621C7.88067 586.639 7.47 586.761 7.218 586.985C6.95667 587.209 6.826 587.559 6.826 588.035C6.826 588.557 7.008 588.982 7.372 589.309C7.736 589.626 8.18867 589.785 8.73 589.785L13 589.785L13 591.381ZM7.666 573.383L11.39 573.383C11.586 573.383 11.726 573.355 11.81 573.299C11.894 573.243 11.936 573.145 11.936 573.005C11.936 572.846 11.9267 572.716 11.908 572.613L13.014 572.613C13.1353 572.958 13.196 573.294 13.196 573.621C13.196 574.33 12.902 574.741 12.314 574.853C12.6033 575.152 12.8227 575.53 12.972 575.987C13.1213 576.444 13.196 576.902 13.196 577.359C13.196 578.068 13.014 578.661 12.65 579.137C12.2767 579.604 11.754 579.837 11.082 579.837C10.7367 579.837 10.438 579.786 10.186 579.683C9.92467 579.571 9.71933 579.436 9.57 579.277C9.42067 579.118 9.29467 578.908 9.192 578.647C9.08 578.386 9.00067 578.148 8.954 577.933C8.90733 577.709 8.86533 577.438 8.828 577.121L8.716 576.239C8.65067 575.726 8.55733 575.371 8.436 575.175C8.31467 574.979 8.10467 574.881 7.806 574.881C7.15267 574.881 6.826 575.38 6.826 576.379C6.826 576.846 6.924 577.219 7.12 577.499C7.30667 577.779 7.59133 577.938 7.974 577.975L7.974 579.571C7.11533 579.515 6.49933 579.184 6.126 578.577C5.75267 577.961 5.566 577.196 5.566 576.281C5.566 575.488 5.73867 574.806 6.084 574.237C6.42933 573.668 6.95667 573.383 7.666 573.383ZM10.564 574.979L9.374 574.979C9.52333 575.231 9.63533 575.642 9.71 576.211L9.794 576.855C9.91533 577.779 10.298 578.241 10.942 578.241C11.278 578.241 11.53 578.11 11.698 577.849C11.8567 577.578 11.936 577.252 11.936 576.869C11.936 576.374 11.824 575.936 11.6 575.553C11.3667 575.17 11.0213 574.979 10.564 574.979ZM3.004 564.848L13 564.848L13 566.36L12.02 566.36L12.02 566.388C12.804 566.789 13.196 567.536 13.196 568.628C13.196 569.729 12.8367 570.569 12.118 571.148C11.3993 571.727 10.4707 572.016 9.332 572.016C8.1 572.016 7.16667 571.713 6.532 571.106C5.888 570.49 5.566 569.748 5.566 568.88C5.566 568.395 5.664 567.933 5.86 567.494C6.04666 567.046 6.32667 566.705 6.7 566.472L6.7 566.444L3.004 566.444L3.004 564.848ZM9.458 570.42C10.1393 570.42 10.7227 570.252 11.208 569.916C11.6933 569.571 11.936 569.071 11.936 568.418C11.936 567.755 11.684 567.251 11.18 566.906C10.676 566.561 10.074 566.388 9.374 566.388C8.57133 566.388 7.946 566.57 7.498 566.934C7.05 567.289 6.826 567.774 6.826 568.39C6.826 569.081 7.08267 569.594 7.596 569.93C8.10933 570.257 8.73 570.42 9.458 570.42ZM4.516 563.065L3.004 563.065L3.004 561.469L4.516 561.469L4.516 563.065ZM13 563.065L5.762 563.065L5.762 561.469L13 561.469L13 563.065ZM6.952 560.458L5.762 560.458L5.762 559.254L3.592 559.254L3.592 557.658L5.762 557.658L5.762 556.216L6.952 556.216L6.952 557.658L10.816 557.658C11.1893 557.658 11.4507 557.616 11.6 557.532C11.74 557.439 11.81 557.224 11.81 556.888C11.81 556.59 11.7913 556.366 11.754 556.216L12.986 556.216C13.042 556.683 13.07 557.028 13.07 557.252C13.07 558.036 12.93 558.564 12.65 558.834C12.3607 559.096 11.8847 559.236 11.222 559.254L6.952 559.254L6.952 560.458ZM13 555.068L3.004 555.068L3.004 553.472L6.714 553.472L6.714 553.444C6.378 553.239 6.10266 552.945 5.888 552.562C5.67333 552.17 5.566 551.741 5.566 551.274C5.566 550.472 5.776 549.846 6.196 549.398C6.616 548.941 7.22733 548.712 8.03 548.712L13 548.712L13 550.308L8.45 550.308C7.88066 550.327 7.47 550.448 7.218 550.672C6.95666 550.896 6.826 551.246 6.826 551.722C6.826 552.245 7.008 552.67 7.372 552.996C7.736 553.314 8.18866 553.472 8.73 553.472L13 553.472L13 555.068ZM12.972 545.083L5.762 547.827L5.762 546.077L11.166 544.187L11.166 544.159L5.762 542.325L5.762 540.659L13.392 543.473C14.2133 543.8 14.75 544.052 15.002 544.229C15.5807 544.64 15.87 545.242 15.87 546.035C15.87 546.408 15.842 546.777 15.786 547.141L14.442 547.141C14.5073 546.73 14.54 546.478 14.54 546.385C14.54 546.049 14.456 545.806 14.288 545.657C14.1293 545.498 13.8773 545.368 13.532 545.265L12.972 545.083ZM7.666 533.707L11.39 533.707C11.586 533.707 11.726 533.679 11.81 533.623C11.894 533.567 11.936 533.469 11.936 533.329C11.936 533.171 11.9267 533.04 11.908 532.937L13.014 532.937C13.1353 533.283 13.196 533.619 13.196 533.945C13.196 534.655 12.902 535.065 12.314 535.177C12.6033 535.476 12.8227 535.854 12.972 536.311C13.1213 536.769 13.196 537.226 13.196 537.683C13.196 538.393 13.014 538.985 12.65 539.461C12.2767 539.928 11.754 540.161 11.082 540.161C10.7367 540.161 10.438 540.11 10.186 540.007C9.92466 539.895 9.71933 539.76 9.57 539.601C9.42066 539.443 9.29466 539.233 9.192 538.971C9.08 538.71 9.00066 538.472 8.954 538.257C8.90733 538.033 8.86533 537.763 8.828 537.445L8.716 536.563C8.65066 536.05 8.55733 535.695 8.436 535.499C8.31466 535.303 8.10466 535.205 7.806 535.205C7.15266 535.205 6.826 535.705 6.826 536.703C6.826 537.17 6.924 537.543 7.12 537.823C7.30666 538.103 7.59133 538.262 7.974 538.299L7.974 539.895C7.11533 539.839 6.49933 539.508 6.126 538.901C5.75266 538.285 5.566 537.52 5.566 536.605C5.566 535.812 5.73866 535.131 6.084 534.561C6.42933 533.992 6.95666 533.707 7.666 533.707ZM10.564 535.303L9.374 535.303C9.52333 535.555 9.63533 535.966 9.71 536.535L9.794 537.179C9.91533 538.103 10.298 538.565 10.942 538.565C11.278 538.565 11.53 538.435 11.698 538.173C11.8567 537.903 11.936 537.576 11.936 537.193C11.936 536.699 11.824 536.26 11.6 535.877C11.3667 535.495 11.0213 535.303 10.564 535.303ZM13 531.864L11.11 531.864L11.11 529.918L13 529.918L13 531.864ZM7.022 528.346L5.762 528.346L5.762 522.466L6.882 522.466L11.74 526.61L11.74 522.256L13 522.256L13 528.626L11.88 528.626L7.022 524.622L7.022 528.346ZM4.516 521.052L3.004 521.052L3.004 519.456L4.516 519.456L4.516 521.052ZM13 521.052L5.762 521.052L5.762 519.456L13 519.456L13 521.052ZM15.674 517.675L5.762 517.675L5.762 516.163L6.742 516.163L6.742 516.135C5.958 515.715 5.566 514.968 5.566 513.895C5.566 512.803 5.93 511.967 6.658 511.389C7.37666 510.801 8.296 510.507 9.416 510.507C10.4707 510.507 11.3667 510.777 12.104 511.319C12.832 511.851 13.196 512.621 13.196 513.629C13.196 514.133 13.1027 514.604 12.916 515.043C12.72 515.481 12.4353 515.817 12.062 516.051L12.062 516.079L15.674 516.079L15.674 517.675ZM9.388 512.103C8.688 512.103 8.086 512.28 7.582 512.635C7.078 512.989 6.826 513.479 6.826 514.105C6.826 514.767 7.05466 515.271 7.512 515.617C7.96933 515.962 8.59466 516.135 9.388 516.135C10.1347 516.135 10.746 515.953 11.222 515.589C11.698 515.225 11.936 514.73 11.936 514.105C11.936 513.433 11.6887 512.933 11.194 512.607C10.6993 512.271 10.0973 512.103 9.388 512.103ZM15.674 505.22L5.762 505.22L5.762 503.708L6.742 503.708L6.742 503.68C5.958 503.26 5.566 502.513 5.566 501.44C5.566 500.348 5.93 499.512 6.658 498.934C7.37666 498.346 8.296 498.052 9.416 498.052C10.4707 498.052 11.3667 498.322 12.104 498.864C12.832 499.396 13.196 500.166 13.196 501.174C13.196 501.678 13.1027 502.149 12.916 502.588C12.72 503.026 12.4353 503.362 12.062 503.596L12.062 503.624L15.674 503.624L15.674 505.22ZM9.388 499.648C8.688 499.648 8.086 499.825 7.582 500.18C7.078 500.534 6.826 501.024 6.826 501.65C6.826 502.312 7.05466 502.816 7.512 503.162C7.96933 503.507 8.59466 503.68 9.388 503.68C10.1347 503.68 10.746 503.498 11.222 503.134C11.698 502.77 11.936 502.275 11.936 501.65C11.936 500.978 11.6887 500.478 11.194 500.152C10.6993 499.816 10.0973 499.648 9.388 499.648ZM13 496.703L5.762 496.703L5.762 495.205L7.162 495.205L7.162 495.177C6.76066 495.084 6.39666 494.827 6.06999 494.407C5.734 493.978 5.566 493.53 5.566 493.063C5.566 492.97 5.58 492.769 5.608 492.461L7.148 492.461C7.10133 492.713 7.078 492.942 7.078 493.147C7.078 493.707 7.29733 494.174 7.736 494.547C8.17466 494.92 8.78133 495.107 9.556 495.107L13 495.107L13 496.703ZM12.146 486.035C12.846 486.689 13.196 487.58 13.196 488.709C13.196 489.839 12.846 490.73 12.146 491.383C11.4367 492.037 10.5127 492.363 9.374 492.363C8.254 492.363 7.33933 492.037 6.63 491.383C5.92066 490.73 5.56599 489.839 5.56599 488.709C5.56599 487.58 5.92066 486.689 6.62999 486.035C7.33933 485.382 8.25399 485.055 9.37399 485.055C10.5127 485.055 11.4367 485.382 12.146 486.035ZM11.18 490.249C11.684 489.895 11.936 489.381 11.936 488.709C11.936 488.037 11.684 487.529 11.18 487.183C10.676 486.829 10.074 486.651 9.37399 486.651C8.68333 486.651 8.08599 486.829 7.58199 487.183C7.07799 487.529 6.82599 488.037 6.82599 488.709C6.82599 489.381 7.07799 489.895 7.58199 490.249C8.086 490.595 8.68333 490.767 9.374 490.767C10.074 490.767 10.676 490.595 11.18 490.249ZM3.00399 476.91L13 476.91L13 478.422L12.02 478.422L12.02 478.45C12.804 478.852 13.196 479.598 13.196 480.69C13.196 481.792 12.8367 482.632 12.118 483.21C11.3993 483.789 10.4707 484.078 9.33199 484.078C8.09999 484.078 7.16666 483.775 6.53199 483.168C5.88799 482.552 5.56599 481.81 5.56599 480.942C5.56599 480.457 5.66399 479.995 5.85999 479.556C6.04666 479.108 6.32666 478.768 6.69999 478.534L6.69999 478.506L3.00399 478.506L3.00399 476.91ZM9.45799 482.482C10.1393 482.482 10.7227 482.314 11.208 481.978C11.6933 481.633 11.936 481.134 11.936 480.48C11.936 479.818 11.684 479.314 11.18 478.968C10.676 478.623 10.074 478.45 9.37399 478.45C8.57133 478.45 7.94599 478.632 7.49799 478.996C7.04999 479.351 6.82599 479.836 6.82599 480.452C6.82599 481.143 7.08266 481.656 7.59599 481.992C8.10933 482.319 8.72999 482.482 9.45799 482.482ZM5.76199 468.814L13 468.814L13 470.382L11.992 470.382L11.992 470.41C12.3467 470.606 12.636 470.9 12.86 471.292C13.084 471.674 13.196 472.066 13.196 472.468C13.196 473.41 12.9627 474.096 12.496 474.526C12.0293 474.955 11.3153 475.17 10.354 475.17L5.76199 475.17L5.76199 473.574L10.2 473.574C10.816 473.574 11.2593 473.457 11.53 473.224C11.8007 472.99 11.936 472.645 11.936 472.188C11.936 471.002 11.278 470.41 9.96199 470.41L5.76199 470.41L5.76199 468.814ZM8.18399 460.649L8.18399 462.245C7.74533 462.31 7.40933 462.487 7.17599 462.777C6.94266 463.066 6.82599 463.439 6.82599 463.897C6.82599 464.13 6.86333 464.354 6.93799 464.569C7.01266 464.774 7.13866 464.984 7.31599 465.199C7.49333 465.404 7.76866 465.572 8.14199 465.703C8.50599 465.824 8.94466 465.885 9.45799 465.885C10.1393 465.885 10.7227 465.726 11.208 465.409C11.6933 465.091 11.936 464.611 11.936 463.967C11.936 463.5 11.7913 463.117 11.502 462.819C11.2127 462.511 10.8067 462.319 10.284 462.245L10.284 460.649C11.2267 460.798 11.95 461.157 12.454 461.727C12.9487 462.287 13.196 463.033 13.196 463.967C13.196 465.068 12.8507 465.931 12.16 466.557C11.46 467.173 10.5593 467.481 9.45799 467.481C8.30999 467.481 7.37666 467.173 6.65799 466.557C5.92999 465.941 5.56599 465.059 5.56599 463.911C5.56599 463.024 5.78999 462.277 6.23799 461.671C6.68599 461.064 7.33466 460.723 8.18399 460.649ZM6.95199 460.079L5.76199 460.079L5.76199 458.875L3.59199 458.875L3.59199 457.279L5.76199 457.279L5.76199 455.837L6.95199 455.837L6.95199 457.279L10.816 457.279C11.1893 457.279 11.4507 457.237 11.6 457.153C11.74 457.06 11.81 456.845 11.81 456.509C11.81 456.211 11.7913 455.987 11.754 455.837L12.986 455.837C13.042 456.304 13.07 456.649 13.07 456.873C13.07 457.657 12.93 458.185 12.65 458.455C12.3607 458.717 11.8847 458.857 11.222 458.875L6.95199 458.875L6.95199 460.079ZM4.51599 454.647L3.00399 454.647L3.00399 453.051L4.51599 453.051L4.51599 454.647ZM13 454.647L5.76199 454.647L5.76199 453.051L13 453.051L13 454.647ZM12.146 445.32C12.846 445.974 13.196 446.865 13.196 447.994C13.196 449.124 12.846 450.015 12.146 450.668C11.4367 451.322 10.5127 451.648 9.37399 451.648C8.25399 451.648 7.33933 451.322 6.62999 450.668C5.92066 450.015 5.56599 449.124 5.56599 447.994C5.56599 446.865 5.92066 445.974 6.62999 445.32C7.33933 444.667 8.25399 444.34 9.37399 444.34C10.5127 444.34 11.4367 444.667 12.146 445.32ZM11.18 449.534C11.684 449.18 11.936 448.666 11.936 447.994C11.936 447.322 11.684 446.814 11.18 446.468C10.676 446.114 10.074 445.936 9.37399 445.936C8.68333 445.936 8.08599 446.114 7.58199 446.468C7.07799 446.814 6.82599 447.322 6.82599 447.994C6.82599 448.666 7.07799 449.18 7.58199 449.534C8.08599 449.88 8.68333 450.052 9.37399 450.052C10.074 450.052 10.676 449.88 11.18 449.534ZM13 443.014L5.76199 443.014L5.76199 441.502L6.82599 441.502L6.85399 441.474C6.45266 441.222 6.13999 440.9 5.91599 440.508C5.68266 440.116 5.56599 439.686 5.56599 439.22C5.56599 438.417 5.77599 437.792 6.19599 437.344C6.61599 436.886 7.22733 436.658 8.02999 436.658L13 436.658L13 438.254L8.44999 438.254C7.88066 438.272 7.46999 438.394 7.21799 438.618C6.95666 438.842 6.82599 439.192 6.82599 439.668C6.82599 440.19 7.00799 440.615 7.37199 440.942C7.73599 441.259 8.18866 441.418 8.72999 441.418L13 441.418L13 443.014Z" fill="#FF0000"/>
<path d="M14.4 600L14.4 435.818L15.1 435.818L15.1 600L14.4 600Z" fill="#FF0000"/>
</svg>
